<svg xmlns="http://www.w3.org/2000/svg" fill="none" viewBox="0 0 188 87" height="87" width="188">
<g clip-path="url(#clip0_4_34)">
<mask height="87" width="188" y="0" x="0" maskUnits="userSpaceOnUse" style="mask-type:luminance" id="mask0_4_34">
<path fill="white" d="M188 0H0V87H188V0Z"></path>
</mask>
<g mask="url(#mask0_4_34)">
<path fill="white" d="M42.4348 54.6835C42.4127 55.0629 42.401 55.4138 42.3711 55.7647C42.3567 55.9382 42.3047 56.1078 42.28 56.28C42.2501 56.4755 42.2085 56.6737 42.2124 56.8705C42.2202 57.3793 41.9966 57.7652 41.5688 58.006C41.0877 58.2767 40.5611 58.4696 40.0839 58.7467C39.4897 59.0911 38.8838 59.0833 38.2415 58.9603C37.4899 58.8166 36.7345 58.6884 35.9751 58.5926C35.4264 58.5227 34.8686 58.4774 34.3173 58.4981C33.9494 58.511 33.5827 58.6483 33.2212 58.7506C33.0067 58.8114 32.809 58.9331 32.5945 58.9862C32.38 59.0393 32.1537 59.0562 31.9314 59.0639C31.7584 59.0704 31.6466 58.9526 31.5907 58.7985C31.5348 58.6457 31.5465 58.4864 31.683 58.379C31.8404 58.2572 32.0055 58.1407 32.1797 58.0475C32.7141 57.7613 33.1159 57.3211 33.6295 56.8744C33.4657 56.8821 33.3903 56.8769 33.3161 56.8899C32.5295 57.0323 31.7441 57.1877 30.9549 57.3185C29.9342 57.4881 28.9174 57.6797 27.8811 57.7665C26.8136 57.8558 25.7552 58.0436 24.6903 58.1614C23.8959 58.2495 23.0988 58.3841 22.294 58.2326C22.1912 58.2132 22.0781 58.2106 21.9754 58.2288C21.4475 58.3246 20.9417 58.1821 20.4463 58.0565C20.2123 57.9983 19.9769 57.8222 19.8144 57.637C19.5673 57.3547 19.3931 57.0207 19.4074 56.6128C19.4165 56.381 19.3723 56.1454 19.3411 55.9136C19.2774 55.4293 19.4516 54.9878 19.5725 54.5359C19.6987 54.0594 19.8235 53.5829 19.9327 53.1038C20.0679 52.5108 20.1941 51.9138 20.3124 51.3169C20.4099 50.8223 20.4619 50.316 20.588 49.8292C20.6621 49.5404 20.6712 49.2517 20.7155 48.9642C20.7532 48.7234 20.8338 48.4877 20.9118 48.2546C20.995 48.0099 21.112 47.7768 21.1913 47.5308C21.2707 47.2874 21.3383 47.0388 21.2785 46.7733C21.2147 46.4898 21.3695 46.2489 21.454 45.9951C21.5463 45.7181 21.6529 45.4448 21.7296 45.1639C21.7947 44.9217 21.8935 44.7094 22.0378 44.5009C22.264 44.1733 22.4682 43.8315 22.7269 43.5246C22.844 43.3861 22.9051 43.1931 22.9636 43.0157C23.0403 42.7827 23.1729 42.6001 23.3641 42.4499C23.4655 42.3709 23.5578 42.2803 23.6436 42.1844C24.1559 41.616 24.6591 41.0398 25.1779 40.4778C25.5446 40.0803 25.9372 39.7048 26.3052 39.3086C26.456 39.1455 26.5458 38.9202 26.7122 38.7803C27.2232 38.3466 27.6042 37.7768 28.1646 37.3961C28.2218 37.3573 28.279 37.3081 28.3154 37.2511C28.5728 36.8562 28.9369 36.6037 29.3465 36.3719C29.7938 36.1181 30.1786 35.7595 30.6038 35.4643C30.9705 35.2105 31.3567 34.9839 31.7337 34.7469C31.8534 34.6718 31.9847 34.6135 32.0939 34.5255C32.6257 34.0917 33.2069 33.7382 33.8206 33.4314C34.4525 33.1141 35.078 32.7839 35.7112 32.4667C36.2911 32.1754 36.9191 32.1326 37.5419 32.2142C37.9476 32.2673 38.287 32.4952 38.3533 33.0183C38.3611 33.0766 38.3793 33.1361 38.3728 33.1931C38.3039 33.768 38.4326 34.3403 38.3962 34.9126C38.3845 35.0965 38.3351 35.2791 38.2857 35.4578C38.2051 35.7504 38.1101 36.0405 38.023 36.3318C37.9853 36.4548 37.958 36.5817 37.9164 36.7047C37.737 37.2239 37.5107 37.7315 37.382 38.2637C37.2169 38.9409 36.9282 39.5689 36.7085 40.2228C36.5342 40.742 36.451 41.2923 36.3496 41.8335C36.2664 42.2829 36.2144 42.7373 36.1507 43.1905C36.048 43.9325 35.9335 44.6731 35.8503 45.4176C35.7944 45.9188 35.7749 46.4237 35.7502 46.9274C35.732 47.3107 35.5591 47.4933 35.1612 47.5062C34.8569 47.5166 34.5501 47.5477 34.2497 47.5218C33.6646 47.4713 33.1328 47.6577 32.5958 47.8312C32.4411 47.8817 32.3149 47.8973 32.168 47.7846C32.0029 47.6577 32.0692 47.5205 32.0887 47.3716C32.1264 47.0932 32.1498 46.8122 32.1901 46.5338C32.2252 46.2904 32.2837 46.0508 32.3149 45.8074C32.3735 45.3542 32.4255 44.901 32.4697 44.4465C32.5113 44.0153 32.5321 43.5816 32.5776 43.1504C32.5971 42.9652 32.6348 42.7775 32.6972 42.6027C32.9794 41.8089 33.2758 41.0191 33.5632 40.2279C33.5996 40.1295 33.6217 40.0247 33.6399 39.9211C33.805 38.9694 34.1132 38.0643 34.4682 37.1683C34.684 36.6244 34.8179 36.043 34.5579 35.4539C34.5072 35.3399 34.5111 35.204 34.4838 35.0784C34.4591 34.9644 34.4422 34.8453 34.3927 34.7404C34.3147 34.5773 34.2107 34.5566 34.0443 34.6446C34.0131 34.6614 33.9832 34.6809 33.9546 34.7016C33.2017 35.2493 32.4307 35.7724 31.7038 36.3512C31.0121 36.9015 30.3607 37.501 29.7886 38.1795C29.773 38.1976 29.7652 38.2222 29.747 38.2365C29.2321 38.6728 28.8368 39.2206 28.3817 39.7126C27.6536 40.4986 26.9098 41.2716 26.2298 42.0951C25.867 42.534 25.4627 42.9562 25.226 43.4974C25.1337 43.7072 24.9256 43.8651 24.8255 44.0736C24.6279 44.4854 24.4615 44.9127 24.2924 45.3361C24.1364 45.7284 23.9882 46.1233 23.8451 46.5208C23.7658 46.741 23.693 46.965 23.641 47.1916C23.5539 47.58 23.446 47.9516 23.2457 48.3064C23.1248 48.5214 23.1131 48.7959 23.0429 49.0406C22.8479 49.7269 22.6489 50.4131 22.4487 51.0981C22.4292 51.1641 22.3772 51.2211 22.3525 51.2858C22.2875 51.4606 22.1626 51.6445 22.1821 51.8116C22.2185 52.1223 22.1119 52.3709 22.0027 52.6428C21.9338 52.8176 21.9637 53.0326 21.9598 53.2294C21.9585 53.3084 21.9845 53.3887 21.9962 53.4495C21.9793 53.4806 21.9767 53.4948 21.9676 53.5013C21.5723 53.8237 21.5788 53.847 22.03 54.0607C22.3499 54.2109 22.658 54.3844 22.9727 54.5462C23.0559 54.589 23.1391 54.6421 23.2288 54.6654C23.6189 54.7625 24.0038 54.8699 24.3418 55.1004C24.3704 55.1199 24.4056 55.1328 24.4407 55.1393C24.9165 55.2157 25.3911 55.3076 25.8696 55.362C26.5965 55.4436 27.3259 55.4164 28.054 55.362C28.5715 55.3231 29.0877 55.2739 29.6039 55.2299C29.639 55.2273 29.6754 55.226 29.7106 55.2196C30.2879 55.1095 30.8652 54.9943 31.4438 54.892C31.6869 54.8492 31.9353 54.8337 32.1797 54.8052C32.8923 54.7236 33.6048 54.6395 34.316 54.5592C34.4916 54.5398 34.6697 54.5359 34.8439 54.5113C35.0637 54.4802 35.2821 54.4375 35.5005 54.396C35.5448 54.387 35.6046 54.3714 35.6241 54.3404C35.8373 53.983 36.2274 53.7447 36.3288 53.311C36.3444 53.2436 36.3691 53.1711 36.412 53.118C36.9815 52.3865 37.4288 51.5772 37.906 50.786C38.365 50.026 38.7239 49.2258 39.032 48.3984C39.1256 48.1459 39.2128 47.8895 39.2908 47.6318C39.3688 47.3728 39.465 47.1268 39.6015 46.8886C39.6964 46.7228 39.7133 46.5131 39.7602 46.3214C39.8473 45.9705 39.95 45.6222 40.0111 45.2674C40.093 44.7948 40.1424 44.317 40.2048 43.8405C40.2204 43.724 40.1983 43.5932 40.2451 43.4922C40.3882 43.1892 40.3557 42.8785 40.3557 42.5599C40.3557 42.0705 40.3102 41.5707 40.513 41.1007C40.5403 41.0385 40.5689 40.9466 40.5429 40.8974C40.3544 40.5322 40.4922 40.1554 40.4974 39.7864C40.5052 39.1532 40.5377 38.5201 40.5624 37.8869C40.5663 37.7807 40.5624 37.6706 40.591 37.5709C40.7808 36.9106 40.8199 36.2269 40.8225 35.5536C40.8251 34.9385 40.8927 34.3442 41.0006 33.7447C41.0604 33.4119 41.0526 33.0662 41.0539 32.7257C41.0552 32.4719 41.0929 32.2349 41.2372 32.0213C41.2697 31.9734 41.3139 31.9203 41.3178 31.8659C41.3426 31.5111 41.3569 31.155 41.3738 30.799C41.3777 30.7174 41.3452 30.6164 41.3829 30.5555C41.5558 30.2758 41.5363 29.9793 41.5129 29.6712C41.5025 29.5391 41.5675 29.3966 41.6143 29.2646C41.7807 28.7907 41.8653 28.2922 42.1032 27.839C42.2423 27.5735 42.358 27.2964 42.3945 26.9818C42.4309 26.6736 42.5635 26.3758 42.6584 26.0754C42.6961 25.955 42.7104 25.8423 42.5895 25.7607C42.4673 25.6779 42.3567 25.74 42.2657 25.8151C41.9849 26.0482 41.6728 26.258 41.4427 26.5351C40.5988 27.5554 39.5014 28.1963 38.3104 28.7143C38.1101 28.801 37.9242 28.8878 37.7825 29.0962C37.6681 29.2646 37.4262 29.363 37.2234 29.4497C36.3678 29.8162 35.5071 30.1735 34.645 30.5219C34.0131 30.7769 33.3759 31.0256 32.7349 31.2573C32.1251 31.4774 31.5101 31.6898 30.8873 31.8711C30.4933 31.9863 30.0824 32.042 29.6768 32.1184C28.344 32.3696 27.0086 32.6027 25.6811 32.8746C24.9673 33.0209 24.2664 33.2307 23.563 33.4184C23.0286 33.5608 22.4981 33.7149 21.965 33.8638C21.1809 34.084 20.3839 34.2393 19.5738 34.3287C19.293 34.3598 19.016 34.4245 18.7365 34.4672C17.5611 34.6472 16.3908 34.879 15.2076 34.9865C14.1492 35.0823 13.1012 35.2364 12.048 35.3555C11.3498 35.4345 10.6476 35.5419 9.93771 35.4422C9.78688 35.4215 9.62955 35.428 9.47743 35.4384C8.7948 35.4837 8.14077 35.3335 7.48935 35.1626C7.38793 35.1354 7.28131 35.0991 7.19939 35.0382C6.97055 34.866 6.7248 34.7353 6.44655 34.664C6.30873 34.6278 6.28662 34.5255 6.28662 34.3908C6.28922 33.9532 6.33863 33.5233 6.45175 33.1025C6.64029 32.3955 6.7261 31.673 6.77551 30.9466C6.81452 30.373 6.83272 29.7968 6.86783 29.2231C6.91204 28.4851 6.97835 27.747 6.88213 27.0077C7.03426 26.6244 6.84053 26.1842 7.08367 25.8151C7.10838 25.7776 7.13178 25.7193 7.12008 25.6831C7.02126 25.3658 7.16559 25.0836 7.2371 24.7896C7.2566 24.7093 7.29301 24.6304 7.29561 24.5501C7.31642 23.948 7.61027 23.4611 7.94313 22.9859C8.04195 22.8448 8.08616 22.6674 8.15508 22.5068C8.21489 22.367 8.24479 22.2064 8.33581 22.0912C8.70508 21.6212 9.08995 21.1628 9.47222 20.7044C9.81939 20.2888 10.1718 19.8783 10.5189 19.464C10.9402 18.9616 11.3589 18.4579 11.7815 17.9555C11.8335 17.8933 11.892 17.8312 11.957 17.782C12.2326 17.5748 12.4732 17.3391 12.6565 17.0413C12.7202 16.9377 12.836 16.8601 12.94 16.7862C13.3795 16.4716 13.8254 16.1634 14.2675 15.8514C14.6212 15.6015 14.9736 15.349 15.3285 15.1004C15.4248 15.033 15.5353 14.9838 15.625 14.91C16.1529 14.4724 16.7172 14.0956 17.3283 13.7822C17.799 13.5401 18.2606 13.2785 18.7235 13.0209C19.3216 12.6881 19.9743 12.569 20.64 12.6311C21.363 12.6985 21.5931 12.9976 21.6945 13.7266C21.7166 13.8871 21.7465 14.0477 21.7791 14.2082C21.8415 14.5047 21.9117 14.8 21.9689 15.0978C21.9806 15.1612 21.9494 15.235 21.9351 15.3024C21.9 15.4733 21.8623 15.6442 21.8272 15.8151C21.6932 16.4677 21.5541 17.1203 21.4306 17.7742C21.3929 17.9775 21.4241 18.195 21.3812 18.397C21.311 18.7285 21.1991 19.0509 21.1159 19.3798C20.9768 19.9288 20.9313 20.4817 20.9664 21.0514C21.0093 21.7649 20.9885 22.4822 21.0041 23.1983C21.0132 23.632 21.0574 24.0645 21.0548 24.4983C21.0522 24.9787 21.1497 25.4487 21.1653 25.9278C21.1783 26.3305 21.2889 26.7358 21.4007 27.1281C21.4852 27.4259 21.5645 27.7315 21.8012 27.9762C22.1158 28.3038 22.0027 28.6974 21.5788 28.8709C21.0574 29.0846 20.5373 29.306 20.0133 29.5132C19.752 29.6168 19.5491 29.7864 19.3697 29.9936C19.0394 30.3743 18.626 30.3302 18.4166 29.8809C18.2398 29.4989 18.0916 29.1027 17.9316 28.713C17.9225 28.6923 17.9199 28.6677 17.9186 28.6444C17.8822 27.7224 17.509 26.8432 17.5845 25.9019C17.63 25.3425 17.6001 24.7754 17.5897 24.2121C17.5845 23.9428 17.5416 23.6748 17.522 23.4067C17.496 23.0584 17.4778 22.7101 17.4505 22.3631C17.3985 21.6937 17.6001 21.0631 17.7561 20.4273C17.8705 19.9612 17.9849 19.5041 18.0096 19.0134C18.0369 18.4682 18.1514 17.9192 18.2944 17.3909C18.4036 16.9857 18.4634 16.5868 18.44 16.1738C18.4335 16.0469 18.3984 15.9174 18.349 15.7996C18.245 15.551 18.1267 15.3101 18.0096 15.0667C17.8822 14.8013 17.7405 14.7663 17.5116 14.9411C16.8563 15.4409 16.175 15.9122 15.5561 16.4535C15.0165 16.9248 14.5432 17.4725 14.0478 17.993C13.8606 18.1886 13.6928 18.4009 13.5134 18.6042C13.4666 18.6573 13.4094 18.7013 13.3652 18.7557C12.6565 19.6336 11.9388 20.505 11.2484 21.3972C10.9116 21.8322 10.5878 22.2815 10.3642 22.7943C10.2654 23.0183 10.0833 23.2099 10.0066 23.4391C9.8662 23.8612 9.75438 24.295 9.66726 24.7314C9.52553 25.4448 9.40591 26.1622 9.29149 26.8808C9.25898 27.088 9.26288 27.3055 9.27849 27.5153C9.31619 27.993 9.3695 28.4708 9.42151 28.9473C9.47092 29.3992 9.52813 29.8511 9.58405 30.3017C9.59575 30.3937 9.60745 30.4869 9.63215 30.5762C9.72317 30.8896 9.64256 31.0178 9.337 31.1278C9.08475 31.2185 8.84421 31.3454 8.60236 31.4645C8.55555 31.4878 8.52695 31.5487 8.47884 31.6056C8.52174 31.6561 8.54905 31.7183 8.59456 31.7377C9.11596 31.9527 9.63866 32.1676 10.1666 32.3683C10.5059 32.4965 10.8505 32.6104 11.1977 32.7153C11.342 32.7593 11.4993 32.7593 11.6488 32.7878C12.5681 32.9626 13.4978 33.0338 14.4275 32.9471C15.2934 32.8655 16.1607 32.8228 17.0241 32.6739C17.7236 32.5535 18.4231 32.3644 19.1552 32.3994C19.5855 32.4201 20.0224 32.3217 20.4541 32.2621C21.1185 32.1715 21.7817 32.0679 22.4448 31.9682C22.5488 31.9527 22.6515 31.9229 22.7568 31.9099C22.8674 31.897 22.9727 31.8413 23.0923 31.9306C23.156 31.9773 23.2769 31.9708 23.3667 31.9565C25.1129 31.6859 26.8565 31.4023 28.5767 30.9906C29.3205 30.8119 30.0668 30.6449 30.808 30.4558C31.0576 30.3924 31.2995 30.2875 31.5374 30.1852C32.2967 29.8615 33.0704 29.5909 33.8791 29.4044C34.3108 29.3047 34.7269 29.1131 35.1326 28.9266C36.0532 28.5045 36.962 28.0578 37.8774 27.6253C38.3598 27.3974 38.7265 27.0375 39.0619 26.6386C39.1295 26.5597 39.1998 26.46 39.2895 26.4263C39.6301 26.2981 39.82 26.0119 40.0527 25.7646C40.1944 25.6131 40.357 25.4707 40.5338 25.3658C40.7249 25.2532 40.8758 25.1328 40.9525 24.9139C41.0942 24.5074 41.3283 24.1577 41.6598 23.8742C41.7209 23.8224 41.7872 23.7551 41.8106 23.6825C41.9095 23.3666 42.15 23.1879 42.4101 23.0183C42.5037 22.9574 42.5882 22.8616 42.6415 22.7632C42.8157 22.446 42.9549 22.108 43.1408 21.7986C43.527 21.1576 43.8312 20.4726 44.22 19.833C44.3786 19.5727 44.5399 19.3151 44.6803 19.0457C44.7557 18.902 44.796 18.7389 44.8376 18.5809C44.8896 18.388 44.9377 18.1937 44.9689 17.9956C45.0626 17.4013 45.3876 17.04 45.974 16.8536C46.6007 16.6555 47.1911 16.346 47.8386 16.1984C48.0869 16.1414 48.3171 16.0948 48.5433 16.2722C48.6863 16.3836 48.7722 16.513 48.7527 16.6917C48.7319 16.8782 48.711 17.0672 48.6564 17.2446C48.4445 17.9387 48.2781 18.6456 47.9738 19.3112C47.8529 19.5766 47.7918 19.8692 47.719 20.1541C47.7021 20.2214 47.7307 20.3574 47.7658 20.3678C47.8399 20.3898 47.9569 20.3781 48.0141 20.3302C48.633 19.8213 49.2598 19.3215 49.8514 18.7829C50.2765 18.3957 50.6458 17.949 51.0502 17.5385C51.4468 17.1346 51.8615 16.7448 52.4024 16.5363C52.6534 16.4392 52.838 16.2761 53.0201 16.0844C53.3308 15.7556 53.6897 15.4888 54.1799 15.4966C54.5401 15.5031 54.6662 15.6235 54.6909 15.9822C54.7208 16.4185 54.8287 16.8367 54.986 17.2446C55.1785 17.7431 55.2422 18.2637 55.2721 18.7932C55.2825 18.9758 55.2929 19.1869 55.3865 19.3319C55.5894 19.6478 55.6388 19.9832 55.6388 20.3393C55.6388 20.7148 55.6687 21.0812 55.7506 21.4554C55.8598 21.9565 55.8741 22.4783 55.9222 22.9911C55.9456 23.2462 55.8689 23.4818 55.7298 23.6942C55.5985 23.8949 55.5048 24.1021 55.4931 24.3481C55.4866 24.475 55.4502 24.6045 55.4008 24.7236C55.263 25.059 55.1174 25.3904 54.9626 25.7193C54.9132 25.8242 54.8716 25.9174 54.9743 26.0029C55.0992 26.1052 55.1941 26.0184 55.2799 25.9343C55.3293 25.8851 55.3839 25.8307 55.4073 25.7685C55.5191 25.4629 55.7298 25.2299 55.9261 24.9787C56.103 24.7534 56.2525 24.4827 56.3318 24.2082C56.4774 23.7084 56.7622 23.2993 57.0573 22.8901C57.1262 22.7956 57.2004 22.7011 57.2446 22.5949C57.5605 21.8309 58.0897 21.2495 58.7646 20.7821C58.9843 20.6293 59.1754 20.4351 59.3796 20.2603C59.442 20.2072 59.4979 20.1412 59.5694 20.1036C59.9335 19.912 60.1766 19.5947 60.4601 19.3112C60.7825 18.9888 61.1791 18.7414 61.525 18.441C61.9151 18.1018 62.2752 17.7289 62.6679 17.3922C62.9513 17.1475 63.2556 16.9235 63.5677 16.7163C63.9109 16.4897 64.275 16.2955 64.6274 16.0806C64.7769 15.9886 64.9199 15.885 65.0603 15.7802C65.4322 15.5018 65.886 15.3814 66.2839 15.1586C67.0029 14.7572 67.6998 14.3144 68.3994 13.878C69.0287 13.4857 69.6489 13.0791 70.2717 12.6764C70.4005 12.5936 70.5253 12.5042 70.6462 12.4097C70.8855 12.2245 71.0428 11.9928 71.1208 11.6911C71.2209 11.3065 71.373 10.9349 71.4901 10.5542C71.5967 10.2059 71.6877 9.8537 71.7865 9.5028C71.8346 9.33447 71.8736 9.16096 71.9412 8.99911C72.1454 8.51484 72.2078 8.00338 72.2273 7.48803C72.2351 7.30028 72.3157 7.20187 72.4483 7.08275C72.9385 6.64768 73.5614 6.4677 74.1439 6.23593C74.5586 6.07019 75.041 6.05594 75.5117 6.11033C75.6157 6.48583 75.604 6.83285 75.4649 7.20446C75.1984 7.91533 74.9565 8.63914 74.8369 9.39403C74.82 9.50021 74.82 9.69055 74.8642 9.70738C74.9695 9.74752 75.123 9.74364 75.2257 9.69314C75.6366 9.48726 76.0331 9.25289 76.4388 9.03666C77.1773 8.64562 77.9198 8.25976 78.6609 7.8726C79.2343 7.5722 79.809 7.2718 80.3837 6.97398C80.8336 6.73962 81.2783 6.49619 81.736 6.27736C82.6813 5.82417 83.6279 5.36968 84.5874 4.94757C85.0815 4.73003 85.6055 4.57983 86.1152 4.39856C86.6145 4.21987 87.1034 4.00363 87.6157 3.87415C87.9863 3.78092 88.3842 3.79516 88.7716 3.77703C88.9212 3.77056 88.9602 3.89616 88.968 4.02305C88.9849 4.30274 88.8327 4.50085 88.6169 4.63551C88.4388 4.74557 88.2372 4.82715 88.0344 4.88412C87.2295 5.11201 86.4117 5.29847 85.6146 5.54966C84.9307 5.7659 84.2611 6.03264 83.598 6.30714C82.8685 6.60884 82.1482 6.93514 81.433 7.26921C80.9858 7.47897 80.5554 7.72499 80.1159 7.95288C79.3722 8.33615 78.6219 8.70518 77.886 9.10399C77.2645 9.44064 76.6611 9.80967 76.0487 10.1619C75.8134 10.2965 75.5754 10.4247 75.3349 10.5503C74.4858 10.9919 73.8981 11.6354 73.7135 12.5987C73.6459 12.9548 73.5848 13.3135 73.495 13.6644C73.4599 13.8017 73.3754 13.9389 73.2792 14.0464C73.1557 14.1836 73.0543 14.3079 73.0816 14.5099C73.1466 14.9864 73.0023 15.4396 72.906 15.8967C72.8553 16.1362 72.7877 16.3719 72.7227 16.6089C72.7019 16.6878 72.6863 16.7785 72.6369 16.838C72.4392 17.0802 72.4093 17.3637 72.3729 17.659C72.3118 18.1406 72.1779 18.6055 71.8281 18.9693C71.702 19.1001 71.6747 19.2413 71.7384 19.3863C71.8151 19.5611 71.7657 19.7074 71.6955 19.8563C71.6357 19.9845 71.5629 20.1062 71.5018 20.2331C71.4068 20.4338 71.3132 20.6306 71.3132 20.8676C71.3132 21.0255 71.2716 21.2042 71.1884 21.3376C71.0545 21.5525 71.0233 21.774 71.0389 22.0122C71.0545 22.244 70.9999 22.4473 70.8568 22.6402C70.7866 22.736 70.7502 22.8733 70.7424 22.995C70.6969 23.6282 70.5175 24.2147 70.1599 24.7443C70.1274 24.7935 70.091 24.8427 70.0741 24.8971C69.8986 25.4798 69.7256 26.0637 69.5566 26.6477C69.541 26.7021 69.5371 26.7681 69.5514 26.8225C69.6736 27.3094 69.4578 27.7172 69.2601 28.1329C69.2159 28.2248 69.1717 28.331 69.1743 28.4281C69.1808 28.6677 69.0872 28.8321 68.8818 28.9499C68.8038 28.9953 68.74 29.0652 68.6555 29.1377C68.7101 29.2206 68.7517 29.2879 68.7973 29.3526C68.8714 29.4588 68.9624 29.5559 69.0183 29.6712C69.1392 29.9198 69.1899 30.158 69.0066 30.426C68.8974 30.5866 68.8597 30.8145 68.8428 31.0178C68.8233 31.2496 68.8766 31.4865 68.8701 31.7196C68.8662 31.84 68.8168 31.9682 68.7595 32.0783C68.4696 32.6402 68.4657 32.6389 68.8558 33.1206C69.0664 33.3822 69.3369 33.4585 69.6424 33.3213C69.814 33.2449 69.974 33.1426 70.1378 33.0481C70.7606 32.6907 71.3834 32.3333 72.0076 31.9773C72.0895 31.9306 72.1753 31.8918 72.2572 31.8426C72.6772 31.594 72.6538 31.5422 72.5212 31.0851C72.3703 30.5685 72.1649 30.0687 72.0375 29.552C71.9048 29.0121 71.9061 28.4372 71.8593 27.8778C71.8502 27.7755 71.897 27.6693 71.9022 27.5645C71.9152 27.2964 71.9777 27.0116 71.9139 26.7617C71.8034 26.3253 71.9295 25.9252 71.9998 25.5134C72.0505 25.2156 72.1064 24.9178 72.1662 24.6213C72.2169 24.3688 72.3183 24.1189 72.3222 23.8664C72.3261 23.61 72.3963 23.3873 72.4887 23.1594C72.6798 22.6855 73.0387 22.3437 73.4768 22.1391C74.465 21.6781 75.3596 21.0631 76.3075 20.5387C76.3478 20.5167 76.392 20.5011 76.4427 20.4791C76.4609 20.5154 76.4947 20.5542 76.4856 20.5723C76.3803 20.7782 76.2516 20.9725 76.1632 21.1848C76.0552 21.4464 75.9707 21.7131 75.9668 22.0083C75.9642 22.1974 75.8979 22.3994 75.8121 22.5716C75.7198 22.7554 75.6184 22.9199 75.6938 23.1335C75.7081 23.175 75.7016 23.2281 75.6938 23.2734C75.5988 23.8638 75.5013 24.4543 75.4038 25.0434C75.396 25.09 75.3687 25.1341 75.3687 25.1794C75.3843 25.7866 75.3999 26.3939 75.4233 27.0012C75.4259 27.0802 75.4831 27.154 75.5 27.2343C75.5273 27.3573 75.5481 27.4829 75.5624 27.6072C75.5845 27.804 75.6014 28.0021 75.6144 28.2002C75.6392 28.5731 75.7315 28.9176 75.9941 29.1998C76.024 29.2322 76.0578 29.284 76.0526 29.3228C76.0175 29.6155 76.1957 29.8304 76.3101 30.0713C76.5467 30.5711 76.4492 30.9155 75.9863 31.2237C75.8303 31.3272 75.6613 31.4295 75.4831 31.4762C75.054 31.5901 74.6783 31.7947 74.3129 32.0394C74.0594 32.2077 73.7733 32.3269 73.5054 32.4732C72.5446 32.9976 71.5889 33.5311 70.6215 34.0438C70.3003 34.2147 69.9545 34.3429 69.6112 34.4698C68.848 34.7508 68.086 35.0292 67.3722 35.4228C66.9795 35.6391 66.5101 35.5251 66.0953 35.1884C65.8236 34.9683 65.6611 34.6653 65.5258 34.3494C65.4062 34.0684 65.2957 33.7836 65.1696 33.5052C65.0785 33.3032 65.0772 33.1102 65.1098 32.8901C65.1995 32.2699 65.466 31.7002 65.5986 31.0929C65.6403 30.9025 65.7833 30.7355 65.8353 30.5452C65.9835 30.0065 66.2033 29.4821 66.2059 28.9098C66.2059 28.8204 66.2436 28.7285 66.2735 28.6405C66.41 28.2404 66.5491 27.8416 66.687 27.4427C66.7221 27.343 66.7403 27.233 66.7949 27.1449C66.9938 26.816 67.064 26.447 67.1615 26.0832C67.4736 24.9178 67.7974 23.7551 68.1211 22.5923C68.3526 21.7584 68.5892 20.9245 68.8259 20.092C68.9767 19.5624 69.1314 19.0341 69.2796 18.5032C69.3043 18.4139 69.3121 18.3193 69.3238 18.2274C69.3447 18.0759 69.3434 17.9205 69.385 17.7755C69.5267 17.2796 69.684 16.7888 69.8335 16.2955C69.8505 16.2398 69.87 16.1829 69.8726 16.1246C69.8947 15.6947 70.0624 15.305 70.2015 14.9049C70.312 14.5837 70.4122 14.26 70.5097 13.935C70.5292 13.869 70.5331 13.7952 70.5266 13.7253C70.5123 13.5621 70.4174 13.4922 70.2613 13.5414C70.1391 13.5802 70.0208 13.6398 69.9103 13.7058C69.03 14.2315 68.1874 14.8142 67.3514 15.4085C66.9132 15.7206 66.4477 15.9964 65.99 16.28C65.7417 16.4328 65.7209 16.6412 65.9679 16.794C66.6505 17.2187 67.1615 17.8169 67.627 18.4514C67.7857 18.6676 67.8338 18.9719 67.9001 19.2451C68.0691 19.9521 67.9924 20.6552 67.7206 21.3169C67.3904 22.1171 66.9821 22.8862 66.6414 23.6825C66.2592 24.5747 65.8639 25.4642 65.596 26.4017C65.4998 26.7396 65.4192 27.0841 65.3074 27.4168C65.154 27.8726 65.2268 28.3362 65.3113 28.7738C65.4374 29.4251 65.1202 29.8149 64.6534 30.1347C64.2659 30.4001 63.8563 30.641 63.435 30.8507C63.0879 31.023 62.703 31.1162 62.348 31.2729C62.0698 31.3959 61.811 31.559 61.5471 31.7118C61.3234 31.84 61.1037 31.976 60.884 32.1119C60.4146 32.4033 59.9452 32.6933 59.481 32.9911C58.8257 33.4093 58.1989 33.8794 57.5163 34.2432C56.8246 34.6122 56.1264 35.0136 55.328 35.1146C54.6584 35.2001 53.9848 35.2299 53.3958 34.7832C52.9967 34.4815 52.8965 34.0619 52.89 33.6049C52.8861 33.3588 52.9291 33.1128 52.9316 32.8668C52.9369 32.3605 52.9772 31.8737 53.193 31.392C53.4283 30.8715 53.5727 30.3108 53.7625 29.7683C53.8288 29.5792 53.9133 29.3979 53.9888 29.2128C54.02 29.1364 54.0538 29.0613 54.0759 28.9823C54.1344 28.7777 54.0694 28.5783 53.9315 28.5239C53.8015 28.4734 53.6273 28.5408 53.5155 28.7194C53.0578 29.4575 52.4389 30.0454 51.8095 30.6358C51.2881 31.1253 50.8721 31.7222 50.3806 32.244C49.867 32.7891 49.4405 33.3899 49.0764 34.0386C49.0413 34.0995 49.0101 34.1746 48.9555 34.2108C48.464 34.541 48.3171 35.0965 48.0505 35.5743C48.0284 35.6157 48.0245 35.6714 47.9946 35.7025C47.5902 36.1298 47.4147 36.6943 47.0896 37.1683C47.009 37.2848 46.9349 37.4091 46.8335 37.5062C46.225 38.0889 45.7712 38.7907 45.3044 39.4821C45.0756 39.8214 44.8194 40.1412 44.5958 40.4843C44.1199 41.2159 43.813 42.0019 43.8312 42.8927C43.8351 43.0779 43.7922 43.2643 43.7714 43.4495C43.7454 43.6696 43.7246 43.891 43.6921 44.1099C43.6674 44.2704 43.6609 44.4478 43.5868 44.5851C43.4516 44.835 43.4412 45.0991 43.4138 45.3671C43.3618 45.8683 43.289 46.3655 43.2253 46.8653C43.2149 46.9468 43.1954 47.0297 43.1993 47.11C43.2227 47.7471 43.1395 48.3751 43.0433 49.0031C42.9653 49.5106 42.9367 50.026 42.8794 50.5374C42.804 51.2133 42.7182 51.8879 42.6441 52.5651C42.6259 52.727 42.6415 52.8914 42.6415 53.096C42.8885 53.0352 43.12 52.9652 43.3566 52.9238C44.0926 52.793 44.7869 52.5561 45.463 52.235C45.9064 52.0239 46.3914 51.897 46.8634 51.752C47.022 51.7041 47.2067 51.5668 47.3705 51.7727C47.3848 51.7908 47.481 51.7585 47.5317 51.7351C47.8711 51.572 48.2079 51.4024 48.5459 51.2379C48.6408 51.1913 48.7397 51.1525 48.8359 51.1072C49.3365 50.8728 49.8436 50.6501 50.3364 50.4002C50.7641 50.1839 51.0957 49.846 51.4 49.4821C51.4741 49.3928 51.5521 49.2801 51.6522 49.2439C51.9825 49.1209 52.1879 48.8671 52.3842 48.6042C52.5286 48.41 52.7002 48.2572 52.9264 48.1666C53.1124 48.0915 53.232 47.9555 53.2957 47.7639C53.4322 47.3521 53.6728 47.009 53.9953 46.719C54.0564 46.6646 54.1331 46.6063 54.1565 46.5351C54.2683 46.2101 54.5206 46.0288 54.791 45.8501C54.9002 45.7776 54.9795 45.6481 55.0485 45.5303C55.2253 45.2273 55.3631 44.8997 55.5646 44.6148C55.696 44.4297 55.826 44.2601 55.8728 44.0335C55.8884 43.9545 55.9326 43.8807 55.9742 43.8095C56.2486 43.3304 56.4839 42.8228 56.8129 42.3851C57.1054 41.998 57.2134 41.5733 57.3148 41.1266C57.3486 40.9777 57.4045 40.8352 57.4487 40.6889C57.5332 40.4079 57.727 40.2176 57.9922 40.1244C58.7138 39.8693 59.4043 39.5261 60.1584 39.363C60.4055 39.3099 60.6408 39.2659 60.8762 39.4083C61.0335 39.5041 61.1219 39.6284 61.105 39.811C61.0907 39.9625 61.0803 40.1192 61.0335 40.2616C60.8189 40.9181 60.5927 41.5707 60.3717 42.2259C60.278 42.503 60.1883 42.7827 60.0986 43.061C60.0674 43.1582 59.9881 43.2838 60.1129 43.342C60.1844 43.3757 60.3236 43.3394 60.3938 43.2851C60.8697 42.9186 61.3507 42.5561 61.798 42.1572C62.3779 41.6393 62.9266 41.0877 63.4897 40.553C63.894 40.1684 64.3283 39.8253 64.8614 39.6349C65.0473 39.5689 65.1956 39.4731 65.3126 39.3138C65.5297 39.0186 65.8561 38.8684 66.1812 38.7324C66.2956 38.6845 66.436 38.6793 66.5634 38.6819C66.8846 38.691 67.012 38.8023 67.0406 39.1273C67.0809 39.6012 67.2474 40.035 67.3865 40.483C67.5204 40.9142 67.5451 41.3791 67.6218 41.8284C67.6504 41.9993 67.6452 42.1987 67.735 42.3321C67.9521 42.6558 67.9976 43.0054 67.9898 43.3718C67.982 43.7395 68.0483 44.0904 68.1224 44.4504C68.216 44.9075 68.2342 45.3801 68.2746 45.8462C68.2954 46.0884 68.2277 46.3137 68.0951 46.517C67.9768 46.6969 67.9248 46.8938 67.865 47.0983C67.7285 47.5567 67.5373 47.9983 67.3657 48.445C67.341 48.5097 67.2773 48.5693 67.276 48.6327C67.2734 48.7039 67.3046 48.7959 67.354 48.8425C67.3878 48.8736 67.4996 48.8658 67.5412 48.8321C67.6296 48.7622 67.7258 48.6755 67.7662 48.5745C67.878 48.2948 68.06 48.0734 68.2537 47.8468C68.4514 47.6176 68.6022 47.3457 68.7687 47.0906C68.9806 46.7669 69.199 46.4457 69.3954 46.113C69.567 45.8216 69.7048 45.5096 69.87 45.2144C70.1287 44.7534 70.5123 44.4051 70.944 44.1073C71.1676 43.9532 71.3899 43.803 71.5447 43.5699C71.6071 43.4754 71.7176 43.4119 71.8047 43.3343C71.9985 43.1646 72.2221 43.0209 72.3781 42.8215C72.7253 42.3787 73.1687 42.0498 73.6069 41.7144C74.0216 41.3985 74.3818 41.0295 74.7329 40.6462C74.9214 40.439 75.1334 40.2448 75.3609 40.0816C75.8303 39.745 76.3166 39.4342 76.7951 39.1131C76.8341 39.0872 76.8705 39.0522 76.9147 39.0367C77.3061 38.8969 77.6467 38.7039 77.9653 38.4152C78.2617 38.1471 78.6804 38.0177 79.0289 37.8001C79.7739 37.3327 80.5073 36.8445 81.2484 36.3693C81.6944 36.0832 82.1482 35.81 82.5955 35.5264C82.745 35.4319 82.8893 35.327 83.0271 35.2169C83.2547 35.0357 83.4107 34.8129 83.4718 34.519C83.5238 34.2665 83.6175 34.0244 83.6786 33.7732C83.7852 33.3355 84.0816 33.0364 84.4145 32.7697C84.5523 32.6596 84.7097 32.5923 84.9047 32.6053C85.1179 32.6195 85.2649 32.4939 85.2922 32.3217C85.3221 32.1313 85.2272 32.0161 85.0633 31.9268C84.7799 31.7714 84.5744 31.5461 84.4392 31.2457C84.2676 30.8611 84.0816 30.4817 83.8788 30.114C83.7319 29.8485 83.6721 29.5702 83.6383 29.2749C83.5928 28.88 83.5472 28.4838 83.4627 28.0953C83.3847 27.7315 83.4211 27.4414 83.7189 27.1734C83.9425 26.9714 84.1038 26.7021 84.291 26.4626C84.5796 26.0935 84.8046 25.6818 85.1544 25.3529C85.4521 25.0732 85.6914 24.7327 85.9449 24.4102C86.0138 24.3222 86.045 24.2031 86.0879 24.0956C86.123 24.0088 86.1243 23.8962 86.1828 23.8327C86.6418 23.32 86.7667 22.6557 86.9565 22.0381C87.0878 21.6108 87.2139 21.1693 87.2868 20.72C87.3414 20.3911 87.3505 20.0661 87.2634 19.7424C87.2451 19.675 87.2347 19.6038 87.2061 19.5404C87.1099 19.328 87.0059 19.3021 86.8278 19.4484C86.5833 19.6504 86.3493 19.8667 86.1009 20.0648C85.6589 20.4183 85.2077 20.7588 84.7656 21.111C84.5367 21.2936 84.3313 21.5046 84.096 21.6781C83.7735 21.9151 83.4458 22.1469 83.1 22.3476C82.7489 22.5521 82.4459 22.8072 82.1742 23.1012C82.1079 23.1737 82.0806 23.285 82.0429 23.3808C81.9128 23.7188 81.8101 24.0697 81.6528 24.3947C81.4773 24.7573 81.476 25.1457 81.4031 25.5238C81.303 26.0404 81.1925 26.5532 81.0807 27.0672C81.0066 27.4104 80.8414 27.7587 80.87 28.0928C80.9064 28.5188 80.8622 28.902 80.6997 29.2853C80.6828 29.3254 80.6854 29.3811 80.6971 29.4251C80.805 29.7955 80.6698 30.1166 80.5008 30.4351C80.4579 30.5167 80.4319 30.6099 80.4072 30.7006C80.2797 31.1641 80.1575 31.6289 80.0288 32.0925C80.0002 32.1935 79.943 32.2854 79.9131 32.3851C79.8741 32.5185 79.8129 32.6583 79.8233 32.7904C79.8467 33.0792 79.7141 33.2824 79.4905 33.4055C78.6752 33.8496 77.886 34.3546 76.9537 34.5423C76.4375 34.6459 76.1436 34.3779 76.2581 33.8638C76.4115 33.1776 76.6117 32.503 76.7769 31.8193C76.9082 31.2755 77.0174 30.7264 77.1331 30.1787C77.2007 29.8576 77.2658 29.5352 77.3256 29.2128C77.4192 28.7065 77.5076 28.1989 77.5999 27.6914C77.7039 27.1151 77.8262 26.5415 77.912 25.9627C77.9666 25.5898 78.0498 25.2286 78.1681 24.8712C78.2669 24.5721 78.3164 24.2562 78.3853 23.9467C78.4789 23.5259 78.5699 23.1037 78.6596 22.6816C78.6791 22.5897 78.696 22.4952 78.6934 22.4032C78.6804 22.0044 78.8365 21.6471 78.9457 21.2767C79.051 20.9194 79.1355 20.5516 79.1836 20.1813C79.2187 19.912 79.0952 19.8317 78.8222 19.8641C78.6245 19.8874 78.4438 19.9405 78.2565 20.0272C78.0316 20.1308 77.756 20.1515 77.5011 20.1528C77.2853 20.1528 77.1968 19.9625 77.2957 19.7708C77.3763 19.6142 77.4764 19.4782 77.6545 19.3979C78.332 19.0911 79.0289 18.8424 79.7375 18.621C79.917 18.5654 80.0951 18.498 80.2693 18.4281C80.8362 18.1976 81.3979 17.9542 81.9688 17.7341C82.1755 17.6551 82.4004 17.6085 82.6215 17.5839C82.94 17.5489 83.0727 17.7198 82.9322 18.0034C82.6241 18.6262 82.6085 19.3228 82.3926 19.969C82.3562 20.0764 82.3523 20.2085 82.3796 20.3186C82.4563 20.6241 82.3796 20.8986 82.26 21.1719C82.2379 21.2236 82.2327 21.2819 82.2223 21.3259C82.3406 21.4671 82.4719 21.4386 82.589 21.379C82.7866 21.2767 82.9881 21.1731 83.1624 21.0385C83.4419 20.8248 83.7059 20.5905 83.9646 20.3522C84.1363 20.193 84.2871 20.0104 84.447 19.8382C84.841 19.4083 85.17 18.9059 85.746 18.6754C85.7993 18.6534 85.8578 18.6249 85.8955 18.5822C86.3025 18.1303 86.8681 17.8843 87.3115 17.4803C87.4324 17.3702 87.5858 17.2977 87.7106 17.1928C87.8628 17.0646 88.0422 16.9442 88.1358 16.7772C88.4076 16.2955 88.8652 16.1272 89.3489 16.0016C89.5895 15.9394 89.8027 16.0119 89.9913 16.1997C90.4242 16.6335 90.5738 17.1812 90.6739 17.7548C90.7688 18.2999 90.709 18.8489 90.7194 19.3966C90.7324 20.1671 90.4893 20.8689 90.2994 21.5901C90.2539 21.761 90.2136 21.9319 90.1733 22.1041C90.0199 22.7606 89.6714 23.3148 89.2696 23.8444C89.0304 24.1603 88.8445 24.5138 88.5506 24.7896C88.4141 24.9178 88.3088 25.081 88.1657 25.1988C87.6911 25.5898 87.4025 26.1194 87.0761 26.6205C87.0397 26.6762 87.0215 26.7526 87.0163 26.8212C87.0007 27.04 86.989 27.2602 86.9877 27.4803C86.9877 28.0202 87.0267 28.5498 87.3947 28.994C87.4389 29.047 87.4974 29.1183 87.4922 29.1765C87.4701 29.4575 87.6612 29.6194 87.8472 29.7476C88.0136 29.8628 88.2307 29.9573 88.4271 29.9625C88.6234 29.9677 88.8471 29.8848 89.0174 29.7773C89.5947 29.4135 90.1538 29.0211 90.7207 28.6405C90.943 28.4916 91.0887 28.3051 91.1667 28.0358C91.2473 27.7587 91.4098 27.5062 91.5347 27.242C91.5997 27.1048 91.6907 26.9714 91.718 26.8264C91.8402 26.1842 92.1302 25.6028 92.3798 25.0085C92.5905 24.5048 92.8388 24.0179 93.0611 23.5194C93.2614 23.0727 93.4421 22.6182 93.6424 22.1715C93.8166 21.783 94.0402 21.4269 94.3445 21.1201C94.4732 20.9893 94.5538 20.8093 94.65 20.6487C94.8555 20.3056 95.0648 19.9651 95.2612 19.6168C95.4133 19.3474 95.6447 19.1713 95.9087 19.0341C96.6927 18.6262 97.4846 18.2339 98.266 17.8208C98.5664 17.6616 98.8433 17.4583 99.1359 17.2822C99.2555 17.211 99.3829 17.1359 99.5169 17.1048C99.9446 17.0077 100.28 16.7345 100.631 16.5079C100.939 16.3097 101.24 16.1233 101.592 16.0119C101.782 15.9524 101.955 15.8436 102.139 15.7646C102.541 15.5937 102.714 15.6157 102.969 15.9614C103.295 16.4043 103.587 16.8743 103.891 17.3327C103.969 17.4505 104.05 17.567 104.116 17.69C104.276 17.9891 104.434 18.2896 104.58 18.5951C104.654 18.7518 104.704 18.9201 104.759 19.0859C104.968 19.7061 104.843 20.3108 104.694 20.9232C104.509 21.6911 104.216 22.4162 103.892 23.1335C103.584 23.8172 103.317 24.5203 103.02 25.2092C102.927 25.4228 102.899 25.6364 102.908 25.8617C102.916 26.0508 102.869 26.2243 102.809 26.4069C102.721 26.6801 102.702 26.9792 102.673 27.2692C102.644 27.5489 102.621 27.8325 102.63 28.1122C102.639 28.4152 102.721 28.7169 102.71 29.0173C102.699 29.3643 102.66 29.7217 102.554 30.0505C102.51 30.1878 102.275 30.3302 102.111 30.3522C101.316 30.4597 100.656 30.887 99.9473 31.1978C99.4402 31.4205 98.9539 31.6885 98.517 32.0368C98.4182 32.1158 98.2855 32.1521 98.1737 32.2168C97.5522 32.5755 96.9229 32.9212 96.3131 33.3006C95.4211 33.8548 94.4147 34.1176 93.4421 34.4672C93.2224 34.5462 92.9883 34.6161 92.7582 34.6239C92.532 34.6317 92.2914 34.5851 92.0782 34.5074C91.6244 34.3416 91.1823 34.1435 90.7389 33.9506C90.4412 33.8211 90.367 33.5816 90.3514 33.2566C90.3345 32.9121 90.2266 32.569 90.133 32.2323C90.0953 32.0977 89.9614 32.0847 89.8378 32.1546C89.3593 32.4292 88.8835 32.7101 88.4037 32.9808C88.0955 33.1543 87.7652 33.2928 87.474 33.4896C86.8421 33.9156 86.2804 34.409 86.1282 35.2131C86.0606 35.5691 85.9904 35.9252 85.9137 36.28C85.863 36.5105 85.8019 36.741 85.6107 36.9028C85.4625 37.0284 85.4235 37.1747 85.4339 37.3702C85.4612 37.9011 85.3533 38.4178 85.1934 38.924C85.1505 39.0574 85.1218 39.1947 85.0906 39.3306C85.075 39.3993 85.0906 39.4886 85.0516 39.5365C84.75 39.9042 84.7812 40.3717 84.6694 40.7925C84.5705 41.1615 84.4379 41.506 84.1844 41.7934C84.0713 41.9216 84.0205 42.0588 84.0934 42.2116C84.174 42.3839 84.1155 42.534 84.0504 42.6842C83.9841 42.8344 83.9022 42.9782 83.8281 43.1258C83.7371 43.3045 83.6721 43.4845 83.6682 43.6955C83.6656 43.8548 83.6227 44.0296 83.5434 44.1668C83.4172 44.3831 83.3795 44.6045 83.3925 44.844C83.4055 45.0745 83.3574 45.2791 83.217 45.4746C83.1403 45.5821 83.1 45.7336 83.0896 45.8683C83.0467 46.4781 82.8802 47.044 82.5279 47.5489C82.494 47.5969 82.4589 47.6474 82.4433 47.703C82.2743 48.3 82.0039 48.8671 81.9089 49.486C81.8998 49.543 81.8933 49.6064 81.9089 49.6621C82.0338 50.1231 81.8192 50.5102 81.6437 50.9078C81.5891 51.0334 81.5371 51.1693 81.5293 51.3027C81.5163 51.5098 81.4408 51.6484 81.2614 51.761C80.9923 51.9307 80.9975 51.9682 81.1873 52.2233C81.2718 52.336 81.3511 52.4551 81.4135 52.5807C81.5228 52.8008 81.554 53.0145 81.3745 53.2307C81.108 53.5531 81.1691 53.9545 81.2094 54.3183C81.2406 54.611 81.1795 54.8428 81.0365 55.081C80.8336 55.4216 80.8414 55.4203 81.1067 55.709C81.2978 55.9175 81.4721 56.1285 81.7893 56.17C82.0611 56.2049 82.3055 56.1479 82.5383 56.0379C83.0493 55.7971 83.5498 55.5368 84.0582 55.2908C84.2052 55.2196 84.3638 55.1716 84.5146 55.1069C84.8696 54.9541 85.2259 54.8026 85.5769 54.6408C85.6823 54.5916 85.7707 54.5087 85.8643 54.4439C85.7837 54.2484 85.7265 54.1215 85.6784 53.9921C85.6172 53.8276 85.521 53.6619 85.5145 53.4935C85.4924 52.9665 85.183 52.5457 85.0217 52.0718C84.9879 51.9734 84.9359 51.8789 84.9216 51.7779C84.854 51.2794 84.7942 50.7796 84.7357 50.2798C84.7292 50.2241 84.7422 50.1632 84.7578 50.1075C84.8657 49.7126 84.8358 49.3164 84.7435 48.9267C84.6512 48.5408 84.8072 48.186 84.8592 47.8183C84.9268 47.3431 85.0347 46.8717 85.0776 46.3952C85.1257 45.8553 85.3195 45.4021 85.7902 45.1263C86.1646 44.9075 86.5768 44.7547 86.9708 44.5695C87.1944 44.4646 87.4129 44.3507 87.6339 44.2419C87.7275 44.1953 87.8186 44.1422 87.9161 44.1021C88.3179 43.9364 88.7196 43.7693 89.1266 43.6152C89.2397 43.5725 89.3698 43.5764 89.4881 43.5596C89.5817 43.7395 89.5167 43.847 89.4088 43.9286C88.9264 44.2963 88.7222 44.8531 88.4713 45.3633C88.3465 45.6171 88.258 45.9162 88.2502 46.2373C88.2372 46.7487 88.1345 47.2576 88.0708 47.7678C88.0656 47.8131 88.063 47.861 88.0669 47.9063C88.1163 48.4074 88.1657 48.9085 88.2216 49.4083C88.2346 49.5236 88.2502 49.6479 88.3062 49.7463C88.405 49.9198 88.4284 50.092 88.4141 50.2862C88.4011 50.4688 88.4193 50.6591 88.6975 50.6397C88.7105 51.0359 88.8432 51.3687 89.0369 51.6847C89.1136 51.8103 89.1786 51.9708 89.1734 52.1132C89.1656 52.3515 89.2306 52.5509 89.358 52.7399C89.371 52.7594 89.3815 52.7814 89.3932 52.8008C89.7832 53.4871 89.6805 53.8975 88.8432 54.3067C88.4843 54.4815 88.1033 54.611 87.7418 54.7806C87.5091 54.8907 87.2985 55.046 87.0683 55.1626C86.335 55.5381 85.6068 55.9291 84.8566 56.271C84.3001 56.5247 83.7137 56.7125 83.1403 56.93C83.0193 56.9754 82.8867 57 82.7749 57.0621C82.026 57.4752 81.2107 57.703 80.3928 57.9335C80.0548 58.0294 79.7349 58.1925 79.4099 58.3323C79.2616 58.3958 79.1433 58.3815 78.9821 58.3259C78.3879 58.12 78.0758 57.6759 77.8522 57.1359C77.7442 56.8756 77.6467 56.6102 77.5245 56.3564C77.4218 56.1441 77.3958 55.9421 77.4634 55.7116C77.6298 55.138 77.7729 54.5566 77.9328 53.9817C77.9666 53.8587 78.0329 53.7447 78.0771 53.6243C78.1681 53.3718 78.2682 53.1219 78.3385 52.863C78.4451 52.4693 78.5569 52.0796 78.5725 51.66C78.5816 51.4037 78.7467 51.1551 78.8417 50.9013C79.0107 50.452 79.1017 49.9742 79.3501 49.5546C79.3852 49.4964 79.393 49.42 79.4099 49.3527C79.6426 48.4437 79.8702 47.5334 80.112 46.6283C80.2303 46.1868 80.3825 45.7556 80.5112 45.3167C80.5866 45.0616 80.6412 44.8 80.714 44.5449C80.8895 43.9351 81.0703 43.3278 81.2484 42.7192C81.3888 42.2349 81.5969 41.7571 81.6476 41.2638C81.7061 40.707 81.8543 40.1813 82.0143 39.6569C82.2288 38.9512 82.325 38.2132 82.6332 37.5321C82.7385 37.299 82.7892 37.0401 82.8568 36.7902C82.8776 36.7125 82.8841 36.6257 82.8737 36.5467C82.8529 36.4082 82.7645 36.3279 82.6228 36.3836C82.4485 36.4535 82.2756 36.5325 82.1157 36.6322C81.2432 37.1721 80.3876 37.7341 79.5815 38.3699C79.4619 38.4644 79.3227 38.5343 79.1914 38.612C78.7831 38.8515 78.7454 39.0328 79.0263 39.3993C79.2343 39.6699 79.4333 39.9483 79.6465 40.215C79.9443 40.5905 80.1367 41.0217 80.2849 41.4658C80.3643 41.7041 80.3733 41.9734 80.3772 42.2285C80.3811 42.4732 80.3213 42.7192 80.3187 42.9639C80.3109 43.5181 80.1679 44.027 79.8819 44.5035C79.7869 44.6615 79.7427 44.8492 79.6764 45.024C79.614 45.1885 79.562 45.3581 79.4866 45.5161C79.3202 45.8657 79.1381 46.2088 78.9717 46.5584C78.9015 46.706 78.8573 46.8666 78.7948 47.0194C78.7428 47.1488 78.6804 47.2744 78.6271 47.4026C78.5452 47.5969 78.4542 47.7872 78.3892 47.9866C78.1343 48.7544 77.8756 49.521 77.6454 50.2953C77.5817 50.5128 77.596 50.7588 77.6064 50.9893C77.6194 51.3053 77.6688 51.6199 77.6922 51.9359C77.7104 52.1715 77.6298 52.389 77.4673 52.5483C77.2697 52.7438 77.046 52.9173 76.8185 53.0779C76.6078 53.2268 76.3647 53.333 76.1553 53.4845C75.7354 53.7901 75.2387 53.9157 74.7628 54.0814C74.4312 54.1953 74.1504 54.3766 73.8669 54.5682C73.6537 54.712 73.4183 54.8233 73.1999 54.9593C72.7604 55.2325 72.3248 55.5122 71.8892 55.7919C71.2053 56.2321 70.5487 56.7203 69.8335 57.1009C69.1522 57.4635 68.4605 57.8532 67.6738 57.9542C67.051 58.0345 66.4269 58.054 65.8548 57.703C65.4673 57.4648 65.2697 57.1113 65.2645 56.6788C65.258 56.0923 65.2983 55.5057 65.3308 54.9204C65.3386 54.7832 65.3815 54.6446 65.427 54.5126C65.626 53.9377 65.8288 53.3628 66.0368 52.7917C66.1213 52.56 66.2254 52.336 66.3164 52.1068C66.3684 51.976 66.4451 51.8426 66.4477 51.7093C66.4477 51.5966 66.3866 51.4399 66.2995 51.3791C66.1747 51.2923 66.0277 51.3622 65.9289 51.4852C65.899 51.5215 65.8704 51.5591 65.8457 51.6005C65.5414 52.1094 65.1579 52.5613 64.7184 52.951C63.9044 53.6748 63.2426 54.532 62.5145 55.3322C62.1062 55.7815 61.7863 56.2826 61.4743 56.7967C61.378 56.9546 61.2441 57.0945 61.1102 57.224C60.9113 57.4156 60.7747 57.6396 60.6564 57.8895C60.5017 58.2158 60.3001 58.5201 60.1181 58.8321C60.018 59.0044 59.8906 59.1649 59.8139 59.3475C59.6383 59.7644 59.3978 60.1464 59.0792 60.4572C58.576 60.9479 58.2119 61.5371 57.805 62.0951C57.6736 62.2751 57.5254 62.4447 57.398 62.6273C57.2381 62.8565 57.0742 63.0857 56.9416 63.3317C56.6491 63.8755 56.2759 64.387 56.2551 65.0409C56.246 65.3452 56.2109 65.6469 56.1836 65.9499C56.1758 66.0418 56.1563 66.1337 56.1433 66.2257C56.1095 66.4691 56.0782 66.7125 56.0418 66.9547C56.021 67.0932 56.0262 67.2486 55.9612 67.3651C55.8065 67.6448 55.7909 67.9426 55.7636 68.2482C55.7285 68.6561 55.657 69.0601 55.6102 69.4666C55.5802 69.723 55.5672 69.9807 55.5451 70.2383C55.5061 70.6941 55.4684 71.1499 55.4229 71.6057C55.3839 72.0019 55.3345 72.3981 55.2877 72.7931C55.2292 73.2825 55.1655 73.7707 55.1057 74.2588C55.0732 74.5268 55.0185 74.7949 55.0159 75.0629C55.012 75.7608 54.8469 76.4315 54.7039 77.1075C54.6948 77.1528 54.6857 77.2046 54.6974 77.2473C54.8248 77.6888 54.726 78.1343 54.7247 78.5784C54.7221 79.1416 54.7559 79.7049 54.7637 80.2681C54.7702 80.755 54.713 80.834 54.2332 80.8366C53.9276 80.8379 53.6533 80.9182 53.3828 81.0282C52.9382 81.2095 52.4766 81.3532 52.0969 81.6769C51.8537 81.8841 51.5508 81.9372 51.2296 81.8867C50.3221 81.7417 49.4158 81.5915 48.5056 81.4646C48.0869 81.4063 47.6579 81.4244 47.2392 81.3636C46.7373 81.2911 46.2536 81.3636 45.7647 81.4439C45.649 81.4633 45.528 81.449 45.4123 81.4633C45.2329 81.484 45.138 81.4063 45.06 81.2458C44.8207 80.7615 44.7973 80.7472 45.2199 80.395C45.974 79.767 46.6411 79.0536 47.2834 78.3168C47.5343 78.0281 47.6943 77.6616 47.9049 77.3353C48.0635 77.0893 48.2131 76.8291 48.4068 76.6128C48.9893 75.9615 49.265 75.16 49.5783 74.3728C49.6654 74.1552 49.7747 73.9468 49.8657 73.7318C50.0035 73.4081 50.1309 73.0805 50.27 72.7581C50.6042 71.9812 50.9098 71.1888 51.5027 70.553C51.5794 70.4701 51.621 70.3536 51.6743 70.25C51.7224 70.1568 51.751 70.0519 51.8095 69.9677C51.9799 69.7217 52.0761 69.4627 52.1099 69.1572C52.1463 68.8244 52.2919 68.5059 52.3478 68.1731C52.435 67.6539 52.487 67.1282 52.5533 66.605C52.5598 66.5584 52.5455 66.5053 52.5637 66.4652C52.8224 65.8903 52.6313 65.2765 52.721 64.6887C52.7548 64.4699 52.7873 64.2497 52.8406 64.0361C52.8809 63.8729 52.8718 63.7253 52.8523 63.5583C52.8146 63.2242 52.8367 62.8837 52.8458 62.5457C52.8614 61.9721 52.8835 61.3998 52.9095 60.8275C52.9173 60.6527 52.9382 60.4766 52.9694 60.3044C53.0994 59.578 53.1696 58.849 53.1566 58.1083C53.1501 57.6901 53.245 57.2719 53.2866 56.8523C53.3295 56.4212 53.3802 55.9913 53.3958 55.5588C53.4049 55.305 53.4491 55.0784 53.574 54.8557C53.6325 54.7521 53.6416 54.6188 53.665 54.497C53.7495 54.0464 53.6507 53.5738 53.8379 53.1349C53.8743 53.0507 53.9172 52.9406 53.8912 52.863C53.7794 52.5185 53.9276 52.2117 54.0187 51.9035C54.1851 51.3441 54.3554 50.7847 54.635 50.2629C54.7091 50.1244 54.7078 49.9483 54.7507 49.7916C54.8313 49.499 54.9158 49.2063 55.0042 48.9163C55.0406 48.7959 55.0589 48.6832 54.9405 48.6004C54.8196 48.5149 54.7078 48.5745 54.6168 48.6496C54.3359 48.8826 54.0213 49.0911 53.7937 49.3682C52.9434 50.3989 51.8355 51.0437 50.6315 51.5591C50.4365 51.6432 50.2726 51.7442 50.1348 51.9294C50.0165 52.0861 49.8007 52.1896 49.6095 52.2712C48.7215 52.6519 47.8269 53.0157 46.9336 53.3861C46.8036 53.4404 46.6749 53.4987 46.5461 53.5583C46.4512 53.6023 46.3667 53.6567 46.2497 53.5855C46.199 53.5557 46.0976 53.5907 46.0273 53.6153C45.4175 53.8367 44.8168 54.0853 44.1979 54.2782C43.7285 54.4245 43.237 54.4983 42.7559 54.6071C42.6454 54.6317 42.5362 54.6628 42.4296 54.6887M44.3162 38.6923C44.4449 38.5563 44.5386 38.4696 44.6166 38.3712C44.8337 38.0941 45.0457 37.8131 45.2576 37.5321C45.2862 37.4945 45.3005 37.4492 45.3265 37.4091C45.4994 37.1307 45.6737 36.8523 45.8479 36.5752C45.9038 36.4859 45.9662 36.4004 46.0234 36.3124C46.2549 35.9459 46.4707 35.5691 46.723 35.2169C46.84 35.0525 46.9726 34.9139 46.9908 34.6977C46.9973 34.6135 47.0584 34.5138 47.1261 34.4582C47.481 34.1655 47.598 33.7382 47.784 33.3498C47.849 33.2138 47.8997 33.0571 48.0011 32.9536C48.282 32.6661 48.5485 32.3722 48.7514 32.0226C48.8151 31.9125 48.9165 31.8232 49.0049 31.7299C49.2793 31.4386 49.5705 31.1628 49.8267 30.8572C50.0217 30.6242 50.1478 30.3341 50.3468 30.1062C50.902 29.4692 51.1542 28.6819 51.491 27.9348C51.5768 27.7431 51.6431 27.5424 51.7094 27.343C51.7757 27.1449 51.829 26.9416 51.8889 26.7422C51.9526 26.5299 52.015 26.3175 52.0826 26.1065C52.2139 25.6934 52.4428 25.2868 52.4649 24.8686C52.5104 23.992 52.5702 23.1025 52.3895 22.2323C52.249 21.5564 52.0579 20.8909 51.8941 20.2202C51.855 20.0609 51.8329 19.8977 51.803 19.7359C51.7874 19.6556 51.7835 19.5714 51.7549 19.4976C51.647 19.2192 51.4936 19.1765 51.2803 19.3811C50.6263 20.0078 49.9333 20.5905 49.2858 21.2288C48.4224 22.0808 47.5733 22.9406 46.7997 23.8742C46.7477 23.9376 46.6827 23.9972 46.6515 24.0697C46.3914 24.6847 46.1301 25.2998 45.8856 25.9213C45.7621 26.2373 45.6659 26.5648 45.5723 26.8911C45.5241 27.0569 45.4955 27.2317 45.4773 27.4039C45.4591 27.5787 45.5332 27.8014 45.45 27.9244C45.2277 28.252 45.2342 28.6236 45.1341 28.9758C44.9403 29.6478 44.9455 30.3406 44.8363 31.0204C44.8051 31.2159 44.7713 31.4114 44.7349 31.6056C44.7115 31.7325 44.6751 31.8568 44.6582 31.9837C44.5867 32.5535 44.5139 33.1245 44.4553 33.6955C44.3929 34.3131 44.3409 34.9321 44.2954 35.551C44.2772 35.8074 44.3201 36.0689 44.1784 36.3085C44.1459 36.3629 44.142 36.4496 44.155 36.5144C44.2473 36.9624 44.1433 37.4013 44.1017 37.8442C44.0757 38.1225 44.0926 38.3996 44.3175 38.6936M56.6178 61.5189C56.731 61.4374 56.7778 61.4179 56.8038 61.383C57.1015 60.9919 57.3967 60.5983 57.6919 60.2047C57.6984 60.1956 57.701 60.1827 57.7075 60.1736C58.0247 59.6673 58.3524 59.1675 58.6579 58.6548C58.8946 58.2559 59.2704 57.9387 59.3731 57.4583C59.3861 57.3936 59.429 57.3211 59.481 57.2822C59.8321 57.0181 59.9166 56.5986 60.109 56.2412C60.213 56.0482 60.3222 55.854 60.4523 55.6779C60.5706 55.5174 60.75 55.3995 60.8501 55.2312C61.0998 54.8104 61.4379 54.4737 61.7785 54.1306C62.0009 53.9066 62.1816 53.6424 62.374 53.3912C62.495 53.2346 62.5912 53.0559 62.7225 52.9083C62.9526 52.6506 63.1347 52.3683 63.2738 52.0537C63.4116 51.7429 63.5794 51.4438 63.712 51.1305C63.8888 50.7096 64.0449 50.2798 64.2074 49.8538C64.223 49.811 64.2126 49.7592 64.2243 49.7152C64.2971 49.4446 64.3491 49.1662 64.4518 48.9072C64.6924 48.3012 64.8939 47.6966 64.8419 47.0284C64.8159 46.7008 64.8614 46.3668 64.8315 46.0405C64.7899 45.5873 64.7353 45.1315 64.6378 44.6887C64.5064 44.0956 64.327 43.5129 64.1749 42.9238C64.1424 42.8008 64.1593 42.6622 64.119 42.5431C64.0215 42.257 63.8342 42.2181 63.6145 42.4227C63.5027 42.5263 63.3934 42.6338 63.279 42.7348C62.8096 43.1452 62.3363 43.5505 61.8695 43.9648C61.6758 44.1371 61.5107 44.3429 61.3078 44.5009C60.4939 45.1367 59.8542 45.9395 59.1611 46.6918C59.074 46.7863 58.9856 46.8912 58.9375 47.0077C58.6852 47.6253 58.4421 48.2482 58.2042 48.8723C58.1248 49.0794 58.0923 49.306 58.0026 49.508C57.8596 49.8266 57.7907 50.1516 57.8219 50.4986C57.8375 50.6812 57.7894 50.8378 57.6866 50.9958C57.5995 51.1292 57.5371 51.2884 57.502 51.4451C57.4643 51.6108 57.5072 51.7986 57.4539 51.9579C57.3187 52.3657 57.268 52.7749 57.2706 53.2035C57.2732 53.5168 57.2069 53.8315 57.1666 54.1448C57.1562 54.2251 57.1249 54.3028 57.1093 54.3831C57.069 54.589 57.0274 54.7936 56.9962 55.0007C56.9663 55.1975 56.9481 55.3957 56.926 55.5938C56.8324 56.4199 56.7349 57.246 56.6478 58.0734C56.6139 58.3958 56.705 58.7299 56.5554 59.0406C56.402 59.3604 56.6191 59.688 56.5346 60.0104C56.5203 60.0674 56.5099 60.1257 56.5073 60.1852C56.4943 60.4895 56.4696 60.7951 56.4787 61.0994C56.4826 61.225 56.558 61.3493 56.6178 61.5202M63.1997 18.7997C62.6367 19.3202 61.9046 19.5883 61.3885 20.1541C61.1193 20.4493 60.8423 20.7355 60.5758 21.0333C60.451 21.1731 60.36 21.3454 60.2273 21.4774C59.8594 21.8452 59.6448 22.3035 59.4511 22.7684C59.2313 23.2967 59.0909 23.8599 58.7398 24.33C58.7125 24.3675 58.6917 24.4115 58.6761 24.4556C58.3706 25.3322 57.8115 26.0935 57.5592 26.9973C57.3928 27.5955 57.1522 28.173 56.9455 28.7596C56.9104 28.8593 56.8896 28.9629 56.8558 29.0626C56.7154 29.4717 56.5593 29.877 56.4306 30.2901C56.2824 30.7718 56.1953 31.2664 56.1862 31.7727C56.1732 32.5483 56.6387 32.916 57.2186 32.8694C57.4994 32.8461 57.7894 32.7192 58.0403 32.5768C58.4798 32.3269 58.8907 32.029 59.3159 31.7532C59.8893 31.3816 60.4614 31.0074 61.0413 30.6475C61.2948 30.4908 61.46 30.3004 61.5419 30.0026C61.72 29.3591 61.7408 28.6793 61.997 28.0539C62.0009 28.0435 61.9996 28.0306 62.0035 28.0189C62.0997 27.6577 62.1686 27.2861 62.3012 26.9378C62.5977 26.1583 62.9279 25.393 63.2387 24.62C63.4259 24.1526 63.6275 23.6877 63.7705 23.206C63.8654 22.8875 63.9577 22.5793 64.1528 22.3061C64.3569 22.0187 64.4466 21.6963 64.4349 21.3428C64.4284 21.1434 64.4128 20.9375 64.4492 20.7433C64.4895 20.5283 64.4284 20.3509 64.3387 20.1709C64.2815 20.0557 64.2009 19.9495 64.1554 19.8291C63.9837 19.3772 63.6483 19.0768 63.1997 18.7958M68.5606 54.4401C68.5541 54.5333 68.5372 54.6278 68.5411 54.721C68.5762 55.5679 69.2744 55.8463 69.7893 55.6676C70.0104 55.5912 70.2379 55.5148 70.4382 55.3957C70.8321 55.1613 71.2274 54.923 71.5863 54.6395C72.1545 54.1915 72.7825 53.8457 73.4001 53.4793C73.642 53.3356 73.8253 53.1517 73.8812 52.8604C73.9358 52.5729 74.0008 52.288 74.0697 52.0032C74.1582 51.6393 74.257 51.2781 74.3493 50.9155C74.4416 50.553 74.5014 50.1788 74.6328 49.8304C74.9305 49.0406 75.2699 48.265 75.5819 47.4803C75.7809 46.9792 75.9798 46.4768 76.1411 45.9628C76.2295 45.6792 76.3348 45.4151 76.4869 45.16C76.6052 44.9619 76.6806 44.7353 76.7626 44.5177C76.786 44.4569 76.7951 44.3365 76.7639 44.317C76.5519 44.1837 76.6624 43.9843 76.6364 43.8133C76.613 43.6657 76.5727 43.5155 76.5129 43.3783C76.4388 43.2061 76.3257 43.0507 76.2529 42.8785C76.1072 42.5366 75.8316 42.3217 75.5546 42.099C75.4298 41.9993 75.3206 41.9954 75.2088 42.1003C74.7017 42.5755 74.0385 42.8474 73.5679 43.3692C73.3403 43.6217 73.0855 43.8522 72.867 44.1125C72.6109 44.4193 72.3781 44.7456 72.1428 45.0693C72.0609 45.182 71.9933 45.3076 71.9373 45.4358C71.7774 45.7996 71.6747 46.1997 71.4602 46.5286C71.0896 47.0958 70.8828 47.7367 70.5591 48.322C70.4226 48.568 70.2743 48.8127 70.1768 49.0743C69.909 49.7877 69.6645 50.5089 69.4136 51.2289C69.3251 51.4827 69.2549 51.7455 69.1548 51.9954C68.8376 52.7814 68.6139 53.5894 68.5606 54.4388M100.402 29.666C100.176 28.9111 100.147 28.1394 100.2 27.3638C100.207 27.2485 100.246 27.1346 100.279 27.0219C100.443 26.4613 100.617 25.9032 100.774 25.3399C100.908 24.8582 101.025 24.3714 101.147 23.8858C101.198 23.6864 101.067 23.4857 100.859 23.5013C100.678 23.5142 100.484 23.566 100.327 23.6553C99.6703 24.0231 99.0306 24.4206 98.3753 24.7909C97.3403 25.3749 96.2988 25.9498 95.256 26.5208C95.0011 26.6607 94.8035 26.8484 94.6357 27.0828C94.3094 27.5386 94.1495 28.0591 94.0142 28.5913C93.9869 28.7 93.97 28.8114 93.9388 28.9732C94.3107 28.8075 94.628 28.6521 94.9543 28.5252C95.5784 28.2831 96.2104 28.0591 96.8384 27.8234C97.3884 27.6163 97.9358 27.3987 98.4884 27.1967C98.7588 27.097 99.067 27.1967 99.184 27.3948C99.2971 27.5891 99.2568 27.8804 99.0358 28.063C98.8589 28.2106 98.6509 28.3478 98.4325 28.4139C97.6549 28.6495 96.8709 28.8658 96.0829 29.0678C95.3249 29.262 94.6188 29.5831 93.9063 29.89C93.7438 29.9599 93.6736 30.0868 93.697 30.2577C93.7542 30.663 93.814 31.0683 93.879 31.4736C93.8894 31.5409 93.918 31.6147 93.9622 31.6639C94.2158 31.9423 94.4784 32.2116 94.8451 32.3476C95.0921 32.4382 95.3301 32.4356 95.5628 32.31C95.7501 32.209 95.9412 32.1171 96.1245 32.0109C97.3663 31.2858 98.6314 30.606 99.9629 30.0531C100.147 29.9767 100.319 29.8667 100.4 29.6673M101.197 20.2176C101.129 19.6621 101.051 19.0108 100.718 18.4216C100.661 18.3193 100.613 18.2119 100.575 18.1005C100.473 17.804 100.402 17.782 100.123 17.9425C99.8276 18.1135 99.5364 18.3038 99.2204 18.4242C98.621 18.6521 98.2946 19.1208 98.019 19.6504C97.8773 19.921 97.7485 20.1981 97.599 20.4662C97.3936 20.8352 97.1439 21.1835 96.9697 21.5655C96.655 22.2582 96.3833 22.9691 96.092 23.6709C96.0608 23.7473 96.0244 23.8211 95.9841 23.8923C95.8476 24.1383 95.7059 24.3805 95.5706 24.6278C95.5368 24.6886 95.5147 24.7573 95.4991 24.8246C95.4471 25.0615 95.5576 25.1768 95.7813 25.0991C95.923 25.0486 96.0569 24.967 96.1843 24.8841C96.4392 24.7158 96.6875 24.5358 96.9385 24.3623C97.1803 24.1953 97.4612 24.0632 97.6536 23.8509C97.8344 23.6515 98.0424 23.5181 98.2595 23.3783C98.556 23.1866 98.855 22.9963 99.1333 22.78C99.6066 22.4136 100.064 22.0264 100.532 21.6535C100.963 21.3091 101.201 20.8727 101.199 20.2176M51.8199 73.2242C51.4858 73.4638 51.2491 73.6787 51.2088 74.0633C51.188 74.2679 51.1204 74.4776 51.0268 74.6628C50.8539 75.0072 50.6406 75.3309 50.4573 75.6702C50.391 75.7919 50.3689 75.9369 50.3143 76.0664C50.2466 76.227 50.1816 76.3901 50.0893 76.5364C49.8956 76.8446 49.655 77.1256 49.4886 77.4454C49.1089 78.1705 48.6499 78.8322 48.0609 79.4006C47.9218 79.5353 47.7476 79.6518 47.8438 79.868C47.9413 80.0869 48.1662 80.0493 48.3457 80.0221C49.0595 79.9108 49.7551 79.9652 50.4352 80.2073C50.7017 80.3018 50.967 80.3989 51.2374 80.4818C51.4923 80.5595 51.6223 80.4883 51.6756 80.2319C51.7055 80.0843 51.7003 79.9276 51.6964 79.7761C51.6925 79.6013 51.6756 79.4252 51.6561 79.2517C51.6197 78.9293 51.7523 78.625 51.764 78.3142C51.7913 77.5865 51.7783 76.8563 51.7744 76.1273C51.7731 75.8929 51.699 75.6495 51.7445 75.4281C51.8758 74.7897 51.8368 74.1462 51.868 73.5052C51.8719 73.4392 51.8459 73.3719 51.8186 73.2268M39.465 50.4144C39.1282 50.6281 38.8916 50.8469 38.8643 51.2315C38.8292 51.7416 38.4781 52.121 38.2818 52.5651C38.1882 52.7775 38.0776 52.9821 37.9749 53.1905C37.8839 53.377 37.7955 53.566 37.7019 53.7512C37.6278 53.8975 37.4769 54.0076 37.4626 54.2303C38.0906 54.1202 38.6875 54.0154 39.2973 53.9079C39.3272 53.4935 39.3493 53.1103 39.3818 52.727C39.4143 52.3463 39.504 51.976 39.478 51.5811C39.4546 51.2082 39.5716 50.8275 39.4637 50.4131M39.1542 55.3076C38.7889 55.3982 38.4794 55.4682 38.1765 55.5536C37.7474 55.674 37.3222 55.8113 36.8931 55.9356C36.6903 55.9939 36.4809 56.034 36.2768 56.091C36.0714 56.1479 35.9283 56.2904 35.8334 56.4717C35.7359 56.6607 35.8022 56.8044 36.0102 56.8355C36.1715 56.8588 36.3392 56.8381 36.503 56.8381C36.8424 56.8381 37.1818 56.8433 37.5211 56.8381C37.9554 56.829 38.391 56.8316 38.8227 56.7889C39.0632 56.7656 39.1737 56.6206 39.1789 56.3823C39.1867 56.0457 39.1646 55.7077 39.1542 55.3076ZM90.605 29.9845C90.4958 30.0389 90.4398 30.057 90.3969 30.0907C90.0745 30.3419 89.7676 30.6177 89.4283 30.8443C88.981 31.1447 88.5051 31.4023 88.0487 31.6911C87.7808 31.8607 87.5299 32.0575 87.266 32.2362C87.158 32.3087 87.1177 32.4084 87.1918 32.5017C87.2347 32.5548 87.3518 32.5768 87.4298 32.5664C87.5312 32.5548 87.6326 32.5068 87.7236 32.4576C88.1267 32.2388 88.5259 32.0122 88.9277 31.7895C89.3281 31.5668 89.7325 31.3506 90.1265 31.1162C90.2292 31.0553 90.3345 30.9479 90.3735 30.8391C90.4646 30.5892 90.5153 30.3238 90.6037 29.9858"></path>
<path fill="white" d="M118.126 32.973C117.772 33.1724 117.697 33.5518 117.529 33.8625C117.375 34.1487 117.281 34.4685 117.155 34.7715C117.129 34.835 117.085 34.8919 117.046 34.9489C117.005 35.0072 116.94 35.0564 116.922 35.1198C116.823 35.4552 116.678 35.7698 116.55 36.0935C116.419 36.4263 116.38 36.7941 116.291 37.145C116.265 37.2459 116.204 37.3379 116.17 37.4376C116.115 37.6007 116.066 37.7678 116.014 37.9322C115.99 38.0099 115.973 38.0915 115.94 38.1653C115.864 38.3401 115.848 38.5123 115.848 38.7078C115.848 38.9953 115.748 39.2814 115.704 39.5689C115.63 40.0454 115.553 40.5193 115.607 41.0075C115.627 41.1784 115.574 41.3571 115.549 41.5306C115.503 41.8491 115.507 41.9371 115.6 42.2401C116.069 42.1948 116.509 42.0498 116.932 41.8374C117.289 41.6575 117.659 41.5047 118.021 41.3363C118.17 41.2664 118.315 41.1874 118.46 41.1097C118.709 40.9764 118.943 40.8055 119.205 40.7109C119.658 40.5478 120.128 40.4351 120.59 40.2953C120.915 40.1969 121.152 40.4118 121.416 40.5193C121.457 40.5361 121.487 40.6125 121.498 40.6669C121.524 40.7925 121.563 40.9246 121.547 41.0489C121.49 41.5111 121.551 41.9747 121.53 42.4395C121.504 43.0157 121.308 43.5531 121.287 44.1578C121.387 44.2523 121.539 44.2484 121.68 44.1811C121.86 44.0969 122.037 43.9985 122.198 43.882C122.456 43.6968 122.708 43.5013 122.943 43.2915C123.153 43.1051 123.335 42.8888 123.535 42.692C123.703 42.5276 123.868 42.3567 124.056 42.2168C124.339 42.0071 124.639 41.8219 124.93 41.6238C124.959 41.6044 124.987 41.5811 125.011 41.5552C125.636 40.8197 126.532 40.4753 127.318 39.9716C127.406 39.9146 127.497 39.8589 127.585 39.8007C127.722 39.7087 127.852 39.6038 127.996 39.5262C128.287 39.3695 128.632 39.1701 128.926 39.2931C129.226 39.4187 129.41 39.7683 129.516 40.0972C129.737 40.7718 129.854 41.4645 129.802 42.178C129.794 42.2829 129.778 42.3903 129.787 42.4939C129.848 43.1789 129.61 43.8147 129.467 44.466C129.416 44.6951 129.338 44.9179 129.283 45.147C129.118 45.8359 128.78 46.4328 128.334 46.9779C128.133 47.224 127.956 47.4894 127.75 47.7302C127.561 47.9517 127.342 48.1498 127.141 48.3634C126.979 48.533 126.821 48.7039 126.669 48.8826C126.57 48.9979 126.493 49.1325 126.394 49.2478C126.165 49.5119 126.095 49.7994 126.233 50.1296C126.279 50.2383 126.331 50.3484 126.349 50.4623C126.426 50.9298 126.704 51.3001 126.934 51.6937C126.979 51.7714 127.06 51.8297 127.125 51.897C127.228 52.0058 127.347 52.1042 127.431 52.2272C127.666 52.5703 127.826 52.6299 128.198 52.4201C128.618 52.1832 129.001 51.8711 129.437 51.6717C129.846 51.484 130.122 51.1797 130.395 50.8586C130.506 50.7278 130.589 50.562 130.645 50.3989C130.911 49.622 131.161 48.8386 131.426 48.0604C131.563 47.6603 131.72 47.268 131.864 46.8705C131.944 46.6503 132.023 46.4289 132.088 46.2036C132.212 45.775 132.322 45.3426 132.542 44.9489C132.576 44.8881 132.596 44.8181 132.613 44.7495C132.82 43.948 133.223 43.2307 133.594 42.5004C133.668 42.3541 133.745 42.2065 133.798 42.0511C133.833 41.9488 133.827 41.8336 133.843 41.6924C133.725 41.7131 133.654 41.7144 133.594 41.739C133.257 41.8802 132.932 42.0498 132.587 42.1663C132.076 42.3385 131.552 42.4732 131.035 42.6286C130.887 42.6726 130.779 42.6506 130.731 42.4874C130.818 42.2479 131.013 42.1327 131.236 42.0343C131.664 41.8439 132.082 41.6277 132.508 41.436C132.82 41.2962 133.141 41.1771 133.457 41.0476C133.862 40.8831 134.265 40.7174 134.668 40.5504C134.722 40.5284 134.78 40.5089 134.826 40.4766C135.396 40.0803 136.055 39.8887 136.697 39.6569C137.041 39.5326 137.379 39.3915 137.727 39.284C138.002 39.1986 138.25 39.3138 138.384 39.5624C138.478 39.7346 138.5 39.9042 138.376 40.0907C138.129 40.461 137.829 40.7951 137.653 41.2133C137.4 41.8154 137.129 42.411 136.864 43.0093C136.817 43.1154 136.757 43.2164 136.709 43.3239C136.652 43.4495 136.6 43.5764 136.551 43.7046C136.509 43.8121 136.491 43.9338 136.428 44.0283C136.173 44.4193 135.999 44.8337 135.973 45.3076C135.968 45.4125 135.891 45.5238 135.824 45.6145C135.677 45.8126 135.521 46.0055 135.356 46.1881C135.231 46.3266 135.231 46.4471 135.335 46.596C135.517 46.8588 135.499 46.8549 135.331 47.1087C135.252 47.2291 135.214 47.3845 135.181 47.5282C135.153 47.6525 135.149 47.7846 135.149 47.9128C135.151 48.2728 135.084 48.5913 134.829 48.8839C134.695 49.038 134.692 49.3022 134.622 49.5132C134.556 49.7113 134.499 49.9159 134.399 50.0972C134.292 50.2914 134.211 50.4779 134.279 50.698C134.323 50.8456 134.291 50.9738 134.209 51.0981C134.079 51.2949 133.954 51.4891 133.95 51.7416C133.95 51.8284 133.872 51.9113 133.843 51.9993C133.772 52.2207 133.706 52.4434 133.642 52.6674C133.616 52.7568 133.613 52.8539 133.577 52.9381C133.446 53.2423 133.546 53.4819 133.859 53.5686C134.152 53.6489 134.435 53.6437 134.718 53.4987C134.924 53.3938 135.167 53.3615 135.375 53.2579C135.604 53.1439 135.809 52.9834 136.029 52.8526C136.292 52.6972 136.556 52.5418 136.826 52.4033C137.082 52.2725 137.182 52.0666 137.132 51.7921C137.101 51.6225 137.097 51.4425 137.108 51.2703C137.156 50.6255 137.272 49.9975 137.472 49.376C137.712 48.6353 138.032 47.9361 138.36 47.2343C138.528 46.8769 138.61 46.4794 138.743 46.1039C138.801 45.9408 138.89 45.7867 138.966 45.63C138.996 45.5679 139.05 45.5096 139.061 45.4448C139.165 44.8661 139.494 44.3831 139.727 43.8587C139.865 43.5492 140.017 43.2449 140.157 42.9368C140.362 42.49 140.702 42.1754 141.127 41.9488C142.283 41.3337 143.495 40.8365 144.698 40.3238C145.488 39.9871 146.283 39.653 147.097 39.3824C147.809 39.1455 148.541 38.9512 149.314 38.9862C150.064 39.0199 150.697 39.2581 151.12 39.9133C151.146 39.9522 151.191 39.991 151.194 40.0324C151.233 40.5206 151.617 40.9129 151.559 41.436C151.525 41.7429 151.463 42.0213 151.224 42.2155C150.995 42.402 150.839 42.6312 150.728 42.8914C150.556 43.3006 150.31 43.6709 149.991 43.9597C149.691 44.2303 149.318 44.4323 148.948 44.6097C148.313 44.9166 147.656 45.1833 147.007 45.463C146.899 45.5096 146.786 45.5536 146.672 45.573C146.233 45.6455 145.853 45.8605 145.459 46.0418C144.379 46.5403 143.308 47.0582 142.218 47.5334C141.697 47.7613 141.27 48.1135 140.861 48.4761C140.585 48.7195 140.486 49.0911 140.622 49.4964C140.685 49.6854 140.636 49.9133 140.64 50.1231C140.642 50.2228 140.611 50.3484 140.661 50.4196C140.818 50.6488 140.888 50.878 140.792 51.1033C140.935 51.3156 141.057 51.4982 141.183 51.6795C141.277 51.8141 141.384 51.941 141.471 52.0796C141.599 52.2868 141.689 52.5276 141.846 52.7089C142.004 52.8902 142.243 53.0002 142.415 53.1737C142.611 53.3705 142.77 53.6036 142.948 53.8198C142.97 53.8457 143.002 53.8639 143.031 53.8846C143.184 54.005 143.337 54.1254 143.538 54.2834C143.746 54.1707 144.006 54.0374 144.258 53.8911C145.358 53.2514 146.455 52.6053 147.555 51.9643C148.613 51.348 149.675 50.7381 150.732 50.1205C151.372 49.7463 151.994 49.3384 152.648 48.9888C153.238 48.6729 153.861 48.4139 154.469 48.1316C154.95 47.9089 155.443 47.7082 155.91 47.457C156.331 47.2304 156.723 46.9469 157.13 46.6918C158.366 45.9188 159.739 45.4461 161.089 44.9217C162.055 44.5462 163.02 44.1694 163.951 43.7033C165.12 43.1167 166.312 42.5755 167.506 42.042C167.987 41.8271 168.503 41.6885 168.999 41.506C170.139 41.0864 171.275 40.6591 172.414 40.2383C172.591 40.1736 172.774 40.127 172.957 40.0816C174.197 39.7761 175.379 39.297 176.589 38.9072C177.482 38.6185 178.373 38.3051 179.318 38.2119C179.492 38.1951 179.671 38.164 179.838 38.1135C180.535 37.8998 181.249 37.8727 181.969 37.883C182.283 37.8869 182.596 37.8571 182.908 37.8739C183.346 37.8973 183.734 38.3103 183.564 38.8179C183.423 39.2361 183.382 39.6867 183.296 40.1231C183.287 40.1684 183.283 40.2163 183.272 40.2616C183.175 40.707 183.071 41.1499 182.982 41.5979C182.912 41.954 182.859 42.3139 182.802 42.6726C182.774 42.8474 182.744 43.0196 182.562 43.1465C182.215 42.5768 181.646 42.4007 181.049 42.2699C180.373 42.121 179.699 41.9514 179.02 41.8206C178.725 41.7636 178.416 41.7792 178.112 41.7597C178.041 41.7559 177.97 41.752 177.901 41.7377C177.045 41.5616 176.203 41.695 175.35 41.7895C174.263 41.9112 173.23 42.2337 172.185 42.5146C171.365 42.7348 170.569 43.0235 169.778 43.3291C169.57 43.4094 169.348 43.4508 169.133 43.513C168.455 43.7111 167.777 43.9118 167.099 44.1086C166.872 44.1746 166.641 44.2225 166.419 44.2963C166.051 44.4193 165.689 44.5618 165.322 44.69C164.879 44.8453 164.436 44.9981 163.991 45.1483C163.646 45.2649 163.286 45.3477 162.959 45.4992C162.099 45.8942 161.182 46.1311 160.306 46.4755C159.551 46.7733 158.832 47.1476 158.116 47.5321C157.444 47.8934 156.738 48.1938 156.049 48.5214C155.944 48.5719 155.845 48.6353 155.741 48.6871C155.183 48.9655 154.621 49.2348 154.069 49.5223C153.807 49.6582 153.566 49.8279 153.312 49.9781C152.765 50.3005 152.199 50.5957 151.67 50.9453C150.93 51.4322 150.076 51.7093 149.358 52.2376C149.065 52.4525 148.723 52.5975 148.415 52.793C147.898 53.1206 147.4 53.478 146.876 53.7927C146.323 54.1241 145.747 54.4194 145.183 54.7327C145.071 54.7949 144.961 54.8609 144.857 54.936C144.476 55.2118 144.106 55.5057 143.663 55.687C143.456 55.7712 143.257 55.8773 143.063 55.9874C142.64 56.2269 142.2 56.4095 141.711 56.4691C141.467 56.4989 141.228 56.5701 140.984 56.5999C140.632 56.6439 140.369 56.4872 140.18 56.1959C140.142 56.1376 140.113 56.0508 140.059 56.0301C139.749 55.911 139.609 55.6365 139.416 55.3995C139.197 55.1302 138.92 54.9075 138.667 54.6628C138.583 54.5812 138.481 54.5087 138.418 54.4129C138.191 54.0749 137.981 53.7266 137.761 53.3848C137.654 53.219 137.54 53.0585 137.418 52.8785C137.123 53.0688 136.859 53.2423 136.592 53.4133C136.255 53.6282 135.926 53.8574 135.578 54.0516C135.127 54.3028 134.659 54.5242 134.2 54.7612C133.96 54.8855 133.723 54.9904 133.452 55.059C133.139 55.138 132.851 55.327 132.555 55.4746C132.183 55.6585 131.844 55.6443 131.503 55.3762C131.236 55.1665 130.945 54.9787 130.642 54.8259C130.269 54.6369 130.092 54.3611 130.13 53.9506C130.151 53.7188 130.191 53.4897 130.205 53.2566C130.211 53.1595 130.198 53.0429 130.146 52.9665C130.073 52.8591 129.94 52.8591 129.827 52.9161C129.512 53.074 129.19 53.2203 128.891 53.4055C128.522 53.6334 128.194 53.9403 127.809 54.1319C127.36 54.3546 126.976 54.6602 126.561 54.9256C126.501 54.9632 126.437 54.9968 126.371 55.0215C125.775 55.2455 125.679 55.2636 125.237 54.7703C125.119 54.6382 125.015 54.4906 124.881 54.3792C124.47 54.04 124.196 53.6075 123.98 53.1323C123.955 53.0792 123.912 53.0196 123.92 52.9704C123.958 52.7128 123.82 52.5185 123.695 52.3204C123.607 52.178 123.542 52.0369 123.549 51.8595C123.553 51.7598 123.499 51.6575 123.474 51.5552C123.428 51.3622 123.384 51.1693 123.343 50.9764C123.332 50.9311 123.347 50.8741 123.324 50.8378C123.149 50.5491 123.202 50.2241 123.157 49.9146C123.133 49.7528 123.165 49.6388 123.249 49.5301C123.573 49.1157 123.821 48.6483 124.232 48.2922C124.539 48.0268 124.774 47.6797 125.039 47.3664C125.076 47.3224 125.116 47.268 125.124 47.2136C125.177 46.8731 125.401 46.6232 125.573 46.3448C125.645 46.2269 125.7 46.0949 125.747 45.9628C125.847 45.6753 125.937 45.3853 126.032 45.0952C126.039 45.0732 126.051 45.0499 126.05 45.0266C126.03 44.4789 126.413 44.0231 126.389 43.465C126.377 43.1802 126.363 42.9031 126.286 42.6325C126.207 42.3541 126.084 42.3191 125.853 42.5017C125.466 42.8099 125.094 43.1375 124.698 43.4327C124.283 43.7421 123.822 43.9959 123.426 44.3261C122.99 44.69 122.516 44.9761 122.024 45.2532C121.355 45.63 120.957 46.2153 120.772 46.9598C120.606 47.6318 120.49 48.309 120.433 49.0005C120.395 49.4498 120.243 49.89 120.158 50.3367C120.1 50.6462 120.07 50.9621 120.022 51.2742C120.006 51.3765 119.98 51.4788 119.946 51.5759C119.785 52.0433 119.668 52.5185 119.668 53.017C119.668 53.4832 119.504 53.9118 119.366 54.3455C119.309 54.5242 119.251 54.6861 119.256 54.8855C119.262 55.1807 119.231 55.2843 118.889 55.3931C118.612 55.4811 118.358 55.6365 118.094 55.7621C117.967 55.8217 117.845 55.9214 117.714 55.9356C117.375 55.9745 117.086 56.1208 116.789 56.2723C116.519 56.4095 116.229 56.5092 115.968 56.618C115.65 56.4212 115.666 56.1195 115.754 55.9019C115.908 55.5238 115.981 55.1496 115.992 54.7469C115.998 54.554 116.1 54.365 116.138 54.1707C116.271 53.4935 116.397 52.8151 116.519 52.1353C116.642 51.4555 116.758 50.7731 116.877 50.0933C117.122 49.7631 117.091 49.3578 117.174 48.9849C117.243 48.6768 117.277 48.3608 117.326 48.0488C117.442 47.3081 117.557 46.5675 117.672 45.8268C117.878 45.5692 117.709 45.1639 118.019 44.945C118.043 44.9282 118.053 44.8816 118.057 44.8479C118.142 44.2924 118.225 43.737 118.307 43.1815C118.333 43.008 118.372 42.8332 118.374 42.6597C118.377 42.3476 118.237 42.235 117.949 42.3398C117.186 42.6208 116.427 42.916 115.671 43.2177C115.574 43.2566 115.441 43.3602 115.433 43.4443C115.39 43.9092 115.176 44.3455 115.237 44.8272C115.284 45.1988 115.294 45.5769 115.308 45.9511C115.319 46.2192 115.307 46.4872 115.308 46.7552C115.312 47.6357 115.44 48.5317 115.221 49.3928C115.037 50.1205 114.865 50.8832 114.212 51.4011C113.855 51.686 113.558 52.0485 113.192 52.3191C112.844 52.5755 112.444 52.762 112.063 52.973C111.683 53.1854 111.302 53.3964 110.916 53.5984C110.501 53.8147 110.08 54.0205 109.66 54.229C109.608 54.2549 109.541 54.2601 109.498 54.2951C108.962 54.7327 108.262 54.7133 107.658 54.9554C107.56 54.9943 107.458 55.0227 107.355 55.0473C107.051 55.1212 106.763 55.2325 106.428 55.2118C106.186 55.1975 105.914 55.3037 105.689 55.419C105.074 55.7336 104.402 55.8566 103.749 56.0444C103.602 56.0858 103.459 56.148 103.31 56.17C103.163 56.192 103.007 56.1972 102.862 56.1687C102.652 56.1259 102.592 56.025 102.614 55.8126C102.625 55.7077 102.632 55.5977 102.67 55.5018C102.827 55.1173 102.9 54.7198 102.909 54.3054C102.913 54.128 102.94 53.9506 102.96 53.7525C102.887 53.7642 102.839 53.7616 102.8 53.7784C102.713 53.8147 102.634 53.869 102.545 53.9014C102.058 54.0749 101.58 54.2614 101.127 54.5204C100.846 54.6809 100.51 54.7469 100.198 54.8505C99.9304 54.9386 99.66 55.0176 99.3843 55.1017C98.963 54.7055 98.6198 54.2679 98.4611 53.7085C98.4364 53.6204 98.4364 53.5233 98.4351 53.4301C98.4286 53.1388 98.4104 52.8474 98.4312 52.5574C98.4429 52.3865 98.5145 52.2181 98.5704 52.0524C98.6315 51.8672 98.7199 51.6885 98.6887 51.4192C98.4884 51.5215 98.3194 51.5927 98.1673 51.6898C97.9397 51.8336 97.7265 52.0006 97.5029 52.1508C97.2272 52.3347 96.9854 52.5444 96.7669 52.8008C96.503 53.1103 96.1662 53.3602 95.8502 53.6243C95.6253 53.8121 95.3639 53.961 95.152 54.163C94.7983 54.5009 94.3316 54.6563 93.9493 54.9451C93.4422 55.3283 92.9273 55.7012 92.4137 56.0767C92.2148 56.2218 92.0158 56.372 91.8052 56.5002C91.4983 56.6866 91.2396 56.6193 91.0666 56.2995C90.8261 55.8527 90.622 55.3853 90.5621 54.8777C90.5075 54.4129 90.475 53.9429 90.4646 53.4741C90.4529 52.9717 90.4412 52.4642 90.4932 51.9656C90.6024 50.9181 90.6818 49.8654 90.9899 48.8477C91.2188 48.0941 91.3995 47.3275 91.6101 46.5688C91.8052 45.8708 92.1575 45.2441 92.5242 44.6265C92.6568 44.4051 92.8116 44.1966 92.9572 43.9804C92.9403 43.7693 92.8207 43.7059 92.6243 43.7149C92.4124 43.7253 92.1979 43.7227 91.9859 43.7149C91.8949 43.7111 91.7961 43.6981 91.7142 43.6606C91.5061 43.566 91.4788 43.3589 91.653 43.21C91.7233 43.1504 91.8156 43.1154 91.9014 43.0779C92.4384 42.8345 92.9845 42.6092 93.5124 42.3476C93.9662 42.1236 94.4174 41.8866 94.8387 41.6083C95.2586 41.3312 95.7059 41.1369 96.1766 40.9764C96.2988 40.9349 96.4132 40.8741 96.5316 40.821C96.607 40.7873 96.6824 40.7226 96.7565 40.7239C97.1505 40.7329 97.4261 40.461 97.7577 40.3251C97.8539 40.2862 97.9501 40.2409 98.0516 40.2176C98.3025 40.1593 98.3909 40.2629 98.3441 40.5219C98.27 40.9272 98.049 41.2496 97.8162 41.5785C97.525 41.9902 97.2766 42.4318 96.9984 42.8539C96.7929 43.1659 96.5576 43.4599 96.3586 43.7771C96.2351 43.9726 96.148 44.1914 96.0544 44.4038C95.966 44.6058 95.9101 44.8259 95.8021 45.0163C95.5577 45.45 95.3574 45.8967 95.2482 46.3849C95.1845 46.6698 95.0662 46.943 94.9908 47.2265C94.9219 47.4855 94.8803 47.751 94.8256 48.0138C94.7996 48.1394 94.7944 48.2741 94.7424 48.3867C94.3485 49.2517 94.3147 50.1658 94.4161 51.0826C94.4642 51.5112 94.641 51.9268 94.758 52.3437C94.8009 52.3411 94.8296 52.3476 94.8465 52.3373C95.494 51.9527 96.1675 51.6044 96.7773 51.168C97.1635 50.8922 97.5809 50.6928 97.9865 50.461C98.1998 50.3393 98.426 50.2396 98.6432 50.1257C98.7888 50.0506 98.8681 49.925 98.9058 49.767C99.0475 49.1584 99.2699 48.5861 99.5637 48.0293C99.751 47.6758 99.7887 47.246 99.9057 46.8536C100.036 46.416 100.175 45.9809 100.319 45.5471C100.474 45.0836 100.661 44.6317 100.631 44.1241C100.622 43.9726 100.718 43.8159 100.765 43.6619C100.815 43.4961 100.913 43.3265 100.9 43.1646C100.88 42.8875 100.947 42.6532 101.098 42.4331C101.207 42.2738 101.283 42.1132 101.25 41.9087C101.224 41.752 101.276 41.6095 101.407 41.4995C101.46 41.4555 101.504 41.3933 101.534 41.3312C101.603 41.1823 101.695 41.0851 101.876 41.0709C101.977 41.0631 102.078 41.0074 102.171 40.9569C102.553 40.7524 102.927 40.5309 103.314 40.3341C103.734 40.1218 104.16 39.9172 104.594 39.7333C104.948 39.5818 105.225 39.7787 105.26 40.1619C105.294 40.5258 105.078 40.8119 104.977 41.133C104.805 41.6808 104.624 42.2246 104.457 42.7736C104.32 43.2203 104.191 43.6709 104.068 44.1228C103.877 44.8259 103.687 45.529 103.507 46.2347C103.412 46.6089 103.357 46.9935 103.258 47.3664C103.211 47.5438 103.121 47.716 103.02 47.8714C102.836 48.1523 102.721 48.445 102.674 48.7829C102.628 49.1015 102.539 49.4252 102.407 49.7191C102.264 50.0402 102.179 50.36 102.136 50.7084C102.097 51.0308 101.98 51.3428 101.9 51.6601C101.85 51.8621 101.8 52.0653 101.755 52.2686C101.727 52.3929 101.703 52.5198 101.686 52.6454C101.669 52.7723 101.643 52.9018 101.658 53.0261C101.674 53.153 101.764 53.2255 101.912 53.2139C102.071 53.2009 103 52.727 103.061 52.5872C103.175 52.3295 103.262 52.0602 103.359 51.796C103.444 51.5655 103.507 51.326 103.617 51.1085C103.718 50.9091 103.752 50.7122 103.727 50.4973C103.705 50.2992 103.679 50.1011 103.671 49.9017C103.667 49.7994 103.684 49.6919 103.714 49.5935C103.987 48.7311 104.247 47.8636 104.548 47.0116C104.754 46.4263 105.016 45.8592 105.259 45.2869C105.497 44.7262 105.74 44.1668 105.987 43.6088C106.048 43.4702 106.11 43.3265 106.203 43.2074C106.647 42.6325 107.082 42.0576 107.676 41.607C108.24 41.1797 108.806 40.7588 109.396 40.3691C109.604 40.2318 109.81 40.2422 110.028 40.3315C110.309 40.4455 110.594 40.5543 110.877 40.6617C111.152 40.7666 111.427 40.8689 111.703 40.9712C111.946 41.0618 111.994 41.0256 112.111 40.8003C112.311 40.4183 112.275 39.9975 112.328 39.5948C112.445 38.7234 112.506 37.8442 112.607 36.9701C112.631 36.7513 112.711 36.539 112.769 36.3253C112.785 36.2696 112.826 36.2179 112.83 36.1622C112.876 35.5834 113.167 35.0797 113.329 34.5359C113.37 34.4012 113.445 34.2756 113.478 34.1396C113.669 33.3394 114.117 32.6558 114.471 31.9294C114.677 31.5085 114.869 31.0786 115.035 30.641C115.16 30.3121 115.394 30.0635 115.585 29.7838C115.697 29.6194 115.825 29.464 115.951 29.3099C116.155 29.0613 116.372 29.1118 116.514 29.3941C116.662 29.6906 116.701 30.0376 116.935 30.2927C117.038 30.922 117.547 31.3674 117.688 31.9889C117.766 32.3346 117.977 32.6506 118.129 32.9834M106.152 53.7124C106.454 53.8393 106.75 53.8496 107.056 53.7642C107.385 53.6735 107.714 53.5842 108.047 53.5104C108.535 53.4016 109.023 53.3252 109.433 52.9808C109.754 52.7115 110.152 52.5354 110.492 52.2855C110.824 52.042 111.161 51.7792 111.327 51.3894C111.479 51.0359 111.595 50.663 111.692 50.2901C111.822 49.7916 111.916 49.2853 112.029 48.7829C112.112 48.4152 112.016 48.0229 112.189 47.6681C112.202 47.6422 112.181 47.5995 112.177 47.5645C112.127 47.0984 112.07 46.6322 112.028 46.1661C112.003 45.889 112.006 45.6093 111.991 45.3322C111.968 44.9023 111.936 44.4724 111.915 44.0412C111.91 43.926 111.971 43.8004 111.945 43.6942C111.846 43.2877 111.873 42.8824 111.902 42.4745C111.915 42.2932 111.809 42.1715 111.65 42.0912C111.473 42.0032 111.302 41.9035 111.124 41.818C110.912 41.717 110.699 41.616 110.478 41.5332C110.349 41.4839 110.219 41.5202 110.124 41.6303C110.055 41.7105 109.984 41.7908 109.932 41.8828C109.752 42.1987 109.565 42.5108 109.412 42.8383C109.078 43.5505 108.767 44.2743 108.439 44.9904C108.195 45.5225 108.04 46.0962 107.707 46.5895C107.629 46.7047 107.572 46.8407 107.534 46.9741C107.408 47.4259 107.304 47.883 107.174 48.3336C107.116 48.533 107.01 48.7195 106.934 48.915C106.866 49.0885 106.748 49.2698 106.761 49.4394C106.776 49.6518 106.72 49.8266 106.664 50.0169C106.541 50.4455 106.429 50.8767 106.313 51.3066C106.25 51.5435 106.182 51.7792 106.126 52.0174C106.087 52.1858 106.018 52.3645 106.044 52.5263C106.077 52.7361 106.056 52.9238 105.98 53.1103C105.927 53.2436 105.925 53.3537 106.019 53.4702C106.077 53.5415 106.108 53.6347 106.148 53.7111M142.064 46.6037C143.342 46.0495 144.59 45.5277 145.819 44.9658C146.275 44.7573 146.72 44.5035 147.003 44.0464C147.181 43.759 147.392 43.4909 147.599 43.2229C147.787 42.9782 147.886 42.6907 147.868 42.4007C147.848 42.1029 147.748 41.8051 147.649 41.5189C147.532 41.1771 147.11 40.9168 146.751 40.9026C146.262 40.8844 145.823 41.0385 145.4 41.2586C145.097 41.4166 144.799 41.5862 144.495 41.7416C144.04 41.9747 143.803 42.3877 143.594 42.8202C143.428 43.1672 143.281 43.5233 143.121 43.8729C143.097 43.9247 143.053 43.9752 143.006 44.005C142.706 44.2018 142.65 44.5398 142.604 44.8337C142.559 45.1367 142.468 45.3672 142.19 45.5368C142.504 45.9304 142.034 46.214 142.064 46.6011"></path>
<path fill="white" d="M116.273 23.2475C116.351 23.7421 116.157 24.0826 115.973 24.4206C115.481 25.3192 114.924 26.1751 114.322 27.0051C114.212 27.1566 114.143 27.3365 114.045 27.4971C113.579 28.2468 113.047 28.9434 112.482 29.6258C111.716 30.5516 110.759 31.2638 109.919 32.1041C109.759 32.2634 109.528 32.3527 109.329 32.4745C108.261 33.1322 107.062 33.4974 105.925 33.9972C105.323 34.2613 104.709 34.2367 104.15 33.8314C104.016 33.7343 103.866 33.6566 103.747 33.5453C103.621 33.4262 103.493 33.2915 103.416 33.1387C103.236 32.7749 103.08 32.3968 102.924 32.0213C102.894 31.9487 102.903 31.8594 102.901 31.7778C102.895 31.401 102.869 31.0242 102.891 30.65C102.908 30.3716 102.972 30.092 103.042 29.8213C103.172 29.3112 103.301 28.7984 103.47 28.2999C103.635 27.8117 103.843 27.3378 104.046 26.8626C104.395 26.0417 104.715 25.204 105.126 24.4141C105.311 24.0593 105.432 23.6722 105.705 23.342C106.188 22.7567 106.59 22.1041 107.015 21.4709C107.578 20.6319 108.126 19.7825 108.688 18.9434C109.075 18.3646 109.585 17.9218 110.209 17.602C110.405 17.501 110.578 17.3508 110.746 17.2045C110.985 16.9947 111.197 16.7551 111.443 16.5519C111.838 16.2243 112.153 16.232 112.552 16.5545C112.808 16.7616 113.047 16.9895 113.309 17.1889C113.414 17.2692 113.554 17.3417 113.683 17.3508C114.215 17.3857 114.745 17.3637 115.256 17.1812C115.29 17.1695 115.324 17.141 115.355 17.1449C115.965 17.2122 116.399 16.8328 116.873 16.5545C117.027 16.4638 117.204 16.4599 117.294 16.5609C117.408 16.6891 117.384 16.8315 117.291 16.9494C117.16 17.1151 117.029 17.2938 116.86 17.4129C116.329 17.7832 115.779 18.1264 115.241 18.4863C114.977 18.6624 114.723 18.8554 114.462 19.0367C114.026 19.3371 113.597 19.6452 113.15 19.9275C112.698 20.2137 112.194 20.1088 111.704 20.0622C111.483 20.0414 111.265 19.9961 111.045 19.9599C110.976 19.9495 110.901 19.9482 110.842 19.9171C110.56 19.7708 110.335 19.8653 110.154 20.0868C109.908 20.3872 109.673 20.6953 109.442 21.0074C109.027 21.5642 108.606 22.1171 108.213 22.6881C108.036 22.9458 107.922 23.2475 107.779 23.5284C107.736 23.6126 107.708 23.7071 107.651 23.7796C107.369 24.1422 107.182 24.5565 106.983 24.9657C106.777 25.3878 106.556 25.8022 106.36 26.2269C106.289 26.3823 106.265 26.5596 106.218 26.7267C106.183 26.851 106.142 26.9727 106.112 27.0983C106.06 27.3262 105.999 27.5528 105.971 27.7833C105.927 28.1665 105.932 28.5589 105.869 28.9383C105.782 29.4588 105.828 29.9728 105.912 30.4804C106.036 31.2469 106.686 31.8037 107.476 31.8167C108.444 31.8322 108.167 31.9138 108.948 31.3842C109.218 31.2003 109.461 30.9686 109.686 30.729C110.096 30.2914 110.453 29.8032 110.885 29.3889C111.3 28.99 111.595 28.4799 112.076 28.1458C112.162 28.0863 112.249 28.006 112.293 27.9153C112.406 27.681 112.616 27.5515 112.795 27.3832C112.954 27.2343 113.063 27.0297 113.188 26.8458C113.253 26.75 113.289 26.6296 113.365 26.5441C113.717 26.1505 114.094 25.7776 114.431 25.3723C114.73 25.0123 114.981 24.6135 115.267 24.2419C115.503 23.935 115.756 23.6411 116.013 23.351C116.063 23.2954 116.167 23.2889 116.278 23.2475"></path>
<path fill="white" d="M60.5785 13.9791C60.5707 13.9195 60.5785 13.8781 60.5616 13.8509C60.4043 13.5777 60.52 13.3083 60.5616 13.0338C60.6071 12.7205 60.6214 12.4033 60.6448 12.0873C60.6942 11.4347 60.9569 10.8624 61.3326 10.3406C61.6421 9.91069 62.0179 9.53907 62.4183 9.18688C62.7603 8.88518 63.0451 8.51874 63.3597 8.18597C63.586 7.94772 63.8187 7.71595 64.0566 7.49064C64.1321 7.41943 64.2283 7.36116 64.3258 7.32491C64.6743 7.19801 64.9408 7.41037 64.855 7.76515C64.7978 8.00081 64.686 8.2287 64.565 8.43976C64.3882 8.74923 64.2387 9.04186 64.2855 9.42901C64.3154 9.6841 64.2127 9.95731 64.1542 10.2189C64.1074 10.4234 64.0202 10.6216 64.1282 10.8326C64.1477 10.8715 64.136 10.9258 64.136 10.9725C64.136 11.3104 64.1256 11.6484 64.1412 11.9863C64.1503 12.1702 64.1646 12.3722 64.2452 12.5314C64.4142 12.8668 64.3232 13.1594 64.1269 13.4184C63.8798 13.7434 63.6198 14.0568 63.2453 14.2678C62.6342 14.6135 62.1271 15.0887 61.7019 15.6468C61.6239 15.7491 61.5459 15.854 61.4575 15.9485C61.3599 16.0521 61.304 16.2269 61.096 16.1622C60.9127 16.1052 60.7514 15.9343 60.7228 15.7336C60.715 15.6753 60.715 15.6157 60.7189 15.5575C60.7371 15.2687 60.702 14.9981 60.5096 14.7599C60.3861 14.6071 60.4225 14.4258 60.4771 14.2549C60.5096 14.1552 60.5499 14.0581 60.5785 13.9791Z"></path>
<path fill="white" d="M134.618 37.725C134.184 37.7263 134.049 37.5321 134.211 37.1398C134.301 36.9235 134.35 36.7177 134.237 36.4975C134.162 36.3499 134.232 36.2243 134.315 36.1065C134.449 35.9188 134.635 35.7569 134.562 35.4837C134.551 35.4397 134.597 35.3736 134.629 35.3244C134.952 34.8181 135.166 34.2601 135.418 33.7188C135.736 33.0377 136.246 32.49 136.851 32.0446C137.267 31.7377 137.714 31.4723 138.139 31.1771C138.593 30.8611 139.035 30.5271 139.489 30.2124C139.779 30.0117 140.073 29.8123 140.385 29.6505C140.529 29.5754 140.723 29.5663 140.892 29.5766C141.026 29.5844 141.096 29.6984 141.013 29.8356C140.917 29.9962 140.82 30.1606 140.7 30.3018C140.554 30.4714 140.381 30.6164 140.222 30.7744C140.072 30.9259 139.971 31.0955 139.915 31.3143C139.854 31.5474 139.714 31.761 139.597 31.9773C139.548 32.0692 139.454 32.1404 139.412 32.2349C139.222 32.6752 139.038 33.118 138.864 33.5634C138.791 33.7486 138.741 33.9415 138.691 34.1345C138.663 34.2355 138.624 34.352 138.649 34.4452C138.763 34.8699 138.497 35.1147 138.225 35.3387C137.816 35.6753 137.388 35.9887 136.961 36.3033C136.449 36.6801 135.935 37.0556 135.413 37.4169C135.172 37.5839 134.919 37.7484 134.621 37.725"></path>
</g>
</g>
<defs>
<clipPath id="clip0_4_34">
<rect fill="white" height="87" width="188"></rect>
</clipPath>
</defs>
</svg>
